<mxfile host="app.diagrams.net" modified="2020-12-16T00:03:35.889Z" agent="5.0 (Windows NT 10.0; WOW64) AppleWebKit/537.36 (KHTML, like Gecko) Chrome/78.0.3904.108 Safari/537.36" etag="PHYSCa54IvfXGBIf6qPr" version="14.0.3" type="github">
  <diagram id="C5RBs43oDa-KdzZeNtuy" name="Page-1">
    <mxGraphModel dx="2249" dy="1169" grid="1" gridSize="10" guides="1" tooltips="1" connect="1" arrows="1" fold="1" page="1" pageScale="1" pageWidth="827" pageHeight="1169" math="0" shadow="0">
      <root>
        <mxCell id="WIyWlLk6GJQsqaUBKTNV-0" />
        <mxCell id="WIyWlLk6GJQsqaUBKTNV-1" parent="WIyWlLk6GJQsqaUBKTNV-0" />
        <mxCell id="WIyWlLk6GJQsqaUBKTNV-2" value="" style="rounded=0;html=1;jettySize=auto;orthogonalLoop=1;fontSize=11;endArrow=block;endFill=0;endSize=8;strokeWidth=1;shadow=0;labelBackgroundColor=none;edgeStyle=orthogonalEdgeStyle;" parent="WIyWlLk6GJQsqaUBKTNV-1" source="WIyWlLk6GJQsqaUBKTNV-3" target="WIyWlLk6GJQsqaUBKTNV-6" edge="1">
          <mxGeometry relative="1" as="geometry" />
        </mxCell>
        <mxCell id="WIyWlLk6GJQsqaUBKTNV-3" value="Lamp doesn&#39;t work" style="rounded=1;whiteSpace=wrap;html=1;fontSize=12;glass=0;strokeWidth=1;shadow=0;" parent="WIyWlLk6GJQsqaUBKTNV-1" vertex="1">
          <mxGeometry x="160" y="80" width="120" height="40" as="geometry" />
        </mxCell>
        <mxCell id="WIyWlLk6GJQsqaUBKTNV-4" value="Yes" style="rounded=0;html=1;jettySize=auto;orthogonalLoop=1;fontSize=11;endArrow=block;endFill=0;endSize=8;strokeWidth=1;shadow=0;labelBackgroundColor=none;edgeStyle=orthogonalEdgeStyle;" parent="WIyWlLk6GJQsqaUBKTNV-1" source="WIyWlLk6GJQsqaUBKTNV-6" target="WIyWlLk6GJQsqaUBKTNV-10" edge="1">
          <mxGeometry y="20" relative="1" as="geometry">
            <mxPoint as="offset" />
          </mxGeometry>
        </mxCell>
        <mxCell id="WIyWlLk6GJQsqaUBKTNV-5" value="No" style="edgeStyle=orthogonalEdgeStyle;rounded=0;html=1;jettySize=auto;orthogonalLoop=1;fontSize=11;endArrow=block;endFill=0;endSize=8;strokeWidth=1;shadow=0;labelBackgroundColor=none;" parent="WIyWlLk6GJQsqaUBKTNV-1" source="WIyWlLk6GJQsqaUBKTNV-6" target="WIyWlLk6GJQsqaUBKTNV-7" edge="1">
          <mxGeometry y="10" relative="1" as="geometry">
            <mxPoint as="offset" />
          </mxGeometry>
        </mxCell>
        <mxCell id="WIyWlLk6GJQsqaUBKTNV-6" value="Lamp&lt;br&gt;plugged in?" style="rhombus;whiteSpace=wrap;html=1;shadow=0;fontFamily=Helvetica;fontSize=12;align=center;strokeWidth=1;spacing=6;spacingTop=-4;" parent="WIyWlLk6GJQsqaUBKTNV-1" vertex="1">
          <mxGeometry x="170" y="170" width="100" height="80" as="geometry" />
        </mxCell>
        <mxCell id="WIyWlLk6GJQsqaUBKTNV-7" value="Plug in lamp" style="rounded=1;whiteSpace=wrap;html=1;fontSize=12;glass=0;strokeWidth=1;shadow=0;" parent="WIyWlLk6GJQsqaUBKTNV-1" vertex="1">
          <mxGeometry x="320" y="190" width="120" height="40" as="geometry" />
        </mxCell>
        <mxCell id="WIyWlLk6GJQsqaUBKTNV-8" value="No" style="rounded=0;html=1;jettySize=auto;orthogonalLoop=1;fontSize=11;endArrow=block;endFill=0;endSize=8;strokeWidth=1;shadow=0;labelBackgroundColor=none;edgeStyle=orthogonalEdgeStyle;" parent="WIyWlLk6GJQsqaUBKTNV-1" source="WIyWlLk6GJQsqaUBKTNV-10" target="WIyWlLk6GJQsqaUBKTNV-11" edge="1">
          <mxGeometry x="0.3333" y="20" relative="1" as="geometry">
            <mxPoint as="offset" />
          </mxGeometry>
        </mxCell>
        <mxCell id="WIyWlLk6GJQsqaUBKTNV-9" value="Yes" style="edgeStyle=orthogonalEdgeStyle;rounded=0;html=1;jettySize=auto;orthogonalLoop=1;fontSize=11;endArrow=block;endFill=0;endSize=8;strokeWidth=1;shadow=0;labelBackgroundColor=none;" parent="WIyWlLk6GJQsqaUBKTNV-1" source="WIyWlLk6GJQsqaUBKTNV-10" target="WIyWlLk6GJQsqaUBKTNV-12" edge="1">
          <mxGeometry y="10" relative="1" as="geometry">
            <mxPoint as="offset" />
          </mxGeometry>
        </mxCell>
        <mxCell id="WIyWlLk6GJQsqaUBKTNV-10" value="Bulb&lt;br&gt;burned out?" style="rhombus;whiteSpace=wrap;html=1;shadow=0;fontFamily=Helvetica;fontSize=12;align=center;strokeWidth=1;spacing=6;spacingTop=-4;" parent="WIyWlLk6GJQsqaUBKTNV-1" vertex="1">
          <mxGeometry x="170" y="290" width="100" height="80" as="geometry" />
        </mxCell>
        <mxCell id="WIyWlLk6GJQsqaUBKTNV-11" value="Repair Lamp" style="rounded=1;whiteSpace=wrap;html=1;fontSize=12;glass=0;strokeWidth=1;shadow=0;" parent="WIyWlLk6GJQsqaUBKTNV-1" vertex="1">
          <mxGeometry x="160" y="430" width="120" height="40" as="geometry" />
        </mxCell>
        <mxCell id="WIyWlLk6GJQsqaUBKTNV-12" value="Replace Bulb" style="rounded=1;whiteSpace=wrap;html=1;fontSize=12;glass=0;strokeWidth=1;shadow=0;" parent="WIyWlLk6GJQsqaUBKTNV-1" vertex="1">
          <mxGeometry x="320" y="310" width="120" height="40" as="geometry" />
        </mxCell>
        <mxCell id="9qrIkXc0WwUOy52vl9C2-0" value="" style="shape=table;html=1;whiteSpace=wrap;startSize=0;container=1;collapsible=0;childLayout=tableLayout;" vertex="1" parent="WIyWlLk6GJQsqaUBKTNV-1">
          <mxGeometry x="-190" y="-330" width="1200" height="800" as="geometry" />
        </mxCell>
        <mxCell id="9qrIkXc0WwUOy52vl9C2-1" value="" style="shape=partialRectangle;html=1;whiteSpace=wrap;collapsible=0;dropTarget=0;pointerEvents=0;fillColor=none;top=0;left=0;bottom=0;right=0;points=[[0,0.5],[1,0.5]];portConstraint=eastwest;" vertex="1" parent="9qrIkXc0WwUOy52vl9C2-0">
          <mxGeometry width="1200" height="40" as="geometry" />
        </mxCell>
        <mxCell id="9qrIkXc0WwUOy52vl9C2-2" value="" style="shape=partialRectangle;html=1;whiteSpace=wrap;connectable=0;overflow=hidden;fillColor=none;top=0;left=0;bottom=0;right=0;" vertex="1" parent="9qrIkXc0WwUOy52vl9C2-1">
          <mxGeometry width="60" height="40" as="geometry" />
        </mxCell>
        <mxCell id="9qrIkXc0WwUOy52vl9C2-3" value="" style="shape=partialRectangle;html=1;whiteSpace=wrap;connectable=0;overflow=hidden;fillColor=none;top=0;left=0;bottom=0;right=0;" vertex="1" parent="9qrIkXc0WwUOy52vl9C2-1">
          <mxGeometry x="60" width="60" height="40" as="geometry" />
        </mxCell>
        <mxCell id="9qrIkXc0WwUOy52vl9C2-4" value="" style="shape=partialRectangle;html=1;whiteSpace=wrap;connectable=0;overflow=hidden;fillColor=none;top=0;left=0;bottom=0;right=0;" vertex="1" parent="9qrIkXc0WwUOy52vl9C2-1">
          <mxGeometry x="120" width="60" height="40" as="geometry" />
        </mxCell>
        <mxCell id="9qrIkXc0WwUOy52vl9C2-5" value="" style="shape=partialRectangle;html=1;whiteSpace=wrap;connectable=0;overflow=hidden;fillColor=none;top=0;left=0;bottom=0;right=0;" vertex="1" parent="9qrIkXc0WwUOy52vl9C2-1">
          <mxGeometry x="180" width="60" height="40" as="geometry" />
        </mxCell>
        <mxCell id="9qrIkXc0WwUOy52vl9C2-6" value="" style="shape=partialRectangle;html=1;whiteSpace=wrap;connectable=0;overflow=hidden;fillColor=none;top=0;left=0;bottom=0;right=0;" vertex="1" parent="9qrIkXc0WwUOy52vl9C2-1">
          <mxGeometry x="240" width="60" height="40" as="geometry" />
        </mxCell>
        <mxCell id="9qrIkXc0WwUOy52vl9C2-7" value="" style="shape=partialRectangle;html=1;whiteSpace=wrap;connectable=0;overflow=hidden;fillColor=none;top=0;left=0;bottom=0;right=0;" vertex="1" parent="9qrIkXc0WwUOy52vl9C2-1">
          <mxGeometry x="300" width="60" height="40" as="geometry" />
        </mxCell>
        <mxCell id="9qrIkXc0WwUOy52vl9C2-8" value="" style="shape=partialRectangle;html=1;whiteSpace=wrap;connectable=0;overflow=hidden;fillColor=none;top=0;left=0;bottom=0;right=0;" vertex="1" parent="9qrIkXc0WwUOy52vl9C2-1">
          <mxGeometry x="360" width="60" height="40" as="geometry" />
        </mxCell>
        <mxCell id="9qrIkXc0WwUOy52vl9C2-9" value="" style="shape=partialRectangle;html=1;whiteSpace=wrap;connectable=0;overflow=hidden;fillColor=none;top=0;left=0;bottom=0;right=0;" vertex="1" parent="9qrIkXc0WwUOy52vl9C2-1">
          <mxGeometry x="420" width="60" height="40" as="geometry" />
        </mxCell>
        <mxCell id="9qrIkXc0WwUOy52vl9C2-10" value="" style="shape=partialRectangle;html=1;whiteSpace=wrap;connectable=0;overflow=hidden;fillColor=none;top=0;left=0;bottom=0;right=0;" vertex="1" parent="9qrIkXc0WwUOy52vl9C2-1">
          <mxGeometry x="480" width="60" height="40" as="geometry" />
        </mxCell>
        <mxCell id="9qrIkXc0WwUOy52vl9C2-11" value="" style="shape=partialRectangle;html=1;whiteSpace=wrap;connectable=0;overflow=hidden;fillColor=none;top=0;left=0;bottom=0;right=0;" vertex="1" parent="9qrIkXc0WwUOy52vl9C2-1">
          <mxGeometry x="540" width="60" height="40" as="geometry" />
        </mxCell>
        <mxCell id="9qrIkXc0WwUOy52vl9C2-12" value="" style="shape=partialRectangle;html=1;whiteSpace=wrap;connectable=0;overflow=hidden;fillColor=none;top=0;left=0;bottom=0;right=0;" vertex="1" parent="9qrIkXc0WwUOy52vl9C2-1">
          <mxGeometry x="600" width="60" height="40" as="geometry" />
        </mxCell>
        <mxCell id="9qrIkXc0WwUOy52vl9C2-13" value="" style="shape=partialRectangle;html=1;whiteSpace=wrap;connectable=0;overflow=hidden;fillColor=none;top=0;left=0;bottom=0;right=0;" vertex="1" parent="9qrIkXc0WwUOy52vl9C2-1">
          <mxGeometry x="660" width="60" height="40" as="geometry" />
        </mxCell>
        <mxCell id="9qrIkXc0WwUOy52vl9C2-14" value="" style="shape=partialRectangle;html=1;whiteSpace=wrap;connectable=0;overflow=hidden;fillColor=none;top=0;left=0;bottom=0;right=0;" vertex="1" parent="9qrIkXc0WwUOy52vl9C2-1">
          <mxGeometry x="720" width="60" height="40" as="geometry" />
        </mxCell>
        <mxCell id="9qrIkXc0WwUOy52vl9C2-15" value="" style="shape=partialRectangle;html=1;whiteSpace=wrap;connectable=0;overflow=hidden;fillColor=none;top=0;left=0;bottom=0;right=0;" vertex="1" parent="9qrIkXc0WwUOy52vl9C2-1">
          <mxGeometry x="780" width="60" height="40" as="geometry" />
        </mxCell>
        <mxCell id="9qrIkXc0WwUOy52vl9C2-16" value="" style="shape=partialRectangle;html=1;whiteSpace=wrap;connectable=0;overflow=hidden;fillColor=none;top=0;left=0;bottom=0;right=0;" vertex="1" parent="9qrIkXc0WwUOy52vl9C2-1">
          <mxGeometry x="840" width="60" height="40" as="geometry" />
        </mxCell>
        <mxCell id="9qrIkXc0WwUOy52vl9C2-17" value="" style="shape=partialRectangle;html=1;whiteSpace=wrap;connectable=0;overflow=hidden;fillColor=none;top=0;left=0;bottom=0;right=0;" vertex="1" parent="9qrIkXc0WwUOy52vl9C2-1">
          <mxGeometry x="900" width="60" height="40" as="geometry" />
        </mxCell>
        <mxCell id="9qrIkXc0WwUOy52vl9C2-18" value="" style="shape=partialRectangle;html=1;whiteSpace=wrap;connectable=0;overflow=hidden;fillColor=none;top=0;left=0;bottom=0;right=0;" vertex="1" parent="9qrIkXc0WwUOy52vl9C2-1">
          <mxGeometry x="960" width="60" height="40" as="geometry" />
        </mxCell>
        <mxCell id="9qrIkXc0WwUOy52vl9C2-19" value="" style="shape=partialRectangle;html=1;whiteSpace=wrap;connectable=0;overflow=hidden;fillColor=none;top=0;left=0;bottom=0;right=0;" vertex="1" parent="9qrIkXc0WwUOy52vl9C2-1">
          <mxGeometry x="1020" width="60" height="40" as="geometry" />
        </mxCell>
        <mxCell id="9qrIkXc0WwUOy52vl9C2-20" value="" style="shape=partialRectangle;html=1;whiteSpace=wrap;connectable=0;overflow=hidden;fillColor=none;top=0;left=0;bottom=0;right=0;" vertex="1" parent="9qrIkXc0WwUOy52vl9C2-1">
          <mxGeometry x="1080" width="60" height="40" as="geometry" />
        </mxCell>
        <mxCell id="9qrIkXc0WwUOy52vl9C2-21" value="" style="shape=partialRectangle;html=1;whiteSpace=wrap;connectable=0;overflow=hidden;fillColor=none;top=0;left=0;bottom=0;right=0;" vertex="1" parent="9qrIkXc0WwUOy52vl9C2-1">
          <mxGeometry x="1140" width="60" height="40" as="geometry" />
        </mxCell>
        <mxCell id="9qrIkXc0WwUOy52vl9C2-22" value="" style="shape=partialRectangle;html=1;whiteSpace=wrap;collapsible=0;dropTarget=0;pointerEvents=0;fillColor=none;top=0;left=0;bottom=0;right=0;points=[[0,0.5],[1,0.5]];portConstraint=eastwest;" vertex="1" parent="9qrIkXc0WwUOy52vl9C2-0">
          <mxGeometry y="40" width="1200" height="40" as="geometry" />
        </mxCell>
        <mxCell id="9qrIkXc0WwUOy52vl9C2-23" value="" style="shape=partialRectangle;html=1;whiteSpace=wrap;connectable=0;overflow=hidden;fillColor=none;top=0;left=0;bottom=0;right=0;" vertex="1" parent="9qrIkXc0WwUOy52vl9C2-22">
          <mxGeometry width="60" height="40" as="geometry" />
        </mxCell>
        <mxCell id="9qrIkXc0WwUOy52vl9C2-24" value="" style="shape=partialRectangle;html=1;whiteSpace=wrap;connectable=0;overflow=hidden;fillColor=none;top=0;left=0;bottom=0;right=0;" vertex="1" parent="9qrIkXc0WwUOy52vl9C2-22">
          <mxGeometry x="60" width="60" height="40" as="geometry" />
        </mxCell>
        <mxCell id="9qrIkXc0WwUOy52vl9C2-25" value="" style="shape=partialRectangle;html=1;whiteSpace=wrap;connectable=0;overflow=hidden;fillColor=none;top=0;left=0;bottom=0;right=0;" vertex="1" parent="9qrIkXc0WwUOy52vl9C2-22">
          <mxGeometry x="120" width="60" height="40" as="geometry" />
        </mxCell>
        <mxCell id="9qrIkXc0WwUOy52vl9C2-26" value="" style="shape=partialRectangle;html=1;whiteSpace=wrap;connectable=0;overflow=hidden;fillColor=none;top=0;left=0;bottom=0;right=0;" vertex="1" parent="9qrIkXc0WwUOy52vl9C2-22">
          <mxGeometry x="180" width="60" height="40" as="geometry" />
        </mxCell>
        <mxCell id="9qrIkXc0WwUOy52vl9C2-27" value="" style="shape=partialRectangle;html=1;whiteSpace=wrap;connectable=0;overflow=hidden;fillColor=none;top=0;left=0;bottom=0;right=0;" vertex="1" parent="9qrIkXc0WwUOy52vl9C2-22">
          <mxGeometry x="240" width="60" height="40" as="geometry" />
        </mxCell>
        <mxCell id="9qrIkXc0WwUOy52vl9C2-28" value="" style="shape=partialRectangle;html=1;whiteSpace=wrap;connectable=0;overflow=hidden;fillColor=none;top=0;left=0;bottom=0;right=0;" vertex="1" parent="9qrIkXc0WwUOy52vl9C2-22">
          <mxGeometry x="300" width="60" height="40" as="geometry" />
        </mxCell>
        <mxCell id="9qrIkXc0WwUOy52vl9C2-29" value="" style="shape=partialRectangle;html=1;whiteSpace=wrap;connectable=0;overflow=hidden;fillColor=none;top=0;left=0;bottom=0;right=0;" vertex="1" parent="9qrIkXc0WwUOy52vl9C2-22">
          <mxGeometry x="360" width="60" height="40" as="geometry" />
        </mxCell>
        <mxCell id="9qrIkXc0WwUOy52vl9C2-30" value="" style="shape=partialRectangle;html=1;whiteSpace=wrap;connectable=0;overflow=hidden;fillColor=none;top=0;left=0;bottom=0;right=0;" vertex="1" parent="9qrIkXc0WwUOy52vl9C2-22">
          <mxGeometry x="420" width="60" height="40" as="geometry" />
        </mxCell>
        <mxCell id="9qrIkXc0WwUOy52vl9C2-31" value="" style="shape=partialRectangle;html=1;whiteSpace=wrap;connectable=0;overflow=hidden;fillColor=none;top=0;left=0;bottom=0;right=0;" vertex="1" parent="9qrIkXc0WwUOy52vl9C2-22">
          <mxGeometry x="480" width="60" height="40" as="geometry" />
        </mxCell>
        <mxCell id="9qrIkXc0WwUOy52vl9C2-32" value="" style="shape=partialRectangle;html=1;whiteSpace=wrap;connectable=0;overflow=hidden;fillColor=none;top=0;left=0;bottom=0;right=0;" vertex="1" parent="9qrIkXc0WwUOy52vl9C2-22">
          <mxGeometry x="540" width="60" height="40" as="geometry" />
        </mxCell>
        <mxCell id="9qrIkXc0WwUOy52vl9C2-33" value="" style="shape=partialRectangle;html=1;whiteSpace=wrap;connectable=0;overflow=hidden;fillColor=none;top=0;left=0;bottom=0;right=0;" vertex="1" parent="9qrIkXc0WwUOy52vl9C2-22">
          <mxGeometry x="600" width="60" height="40" as="geometry" />
        </mxCell>
        <mxCell id="9qrIkXc0WwUOy52vl9C2-34" value="" style="shape=partialRectangle;html=1;whiteSpace=wrap;connectable=0;overflow=hidden;fillColor=none;top=0;left=0;bottom=0;right=0;" vertex="1" parent="9qrIkXc0WwUOy52vl9C2-22">
          <mxGeometry x="660" width="60" height="40" as="geometry" />
        </mxCell>
        <mxCell id="9qrIkXc0WwUOy52vl9C2-35" value="" style="shape=partialRectangle;html=1;whiteSpace=wrap;connectable=0;overflow=hidden;fillColor=none;top=0;left=0;bottom=0;right=0;" vertex="1" parent="9qrIkXc0WwUOy52vl9C2-22">
          <mxGeometry x="720" width="60" height="40" as="geometry" />
        </mxCell>
        <mxCell id="9qrIkXc0WwUOy52vl9C2-36" value="" style="shape=partialRectangle;html=1;whiteSpace=wrap;connectable=0;overflow=hidden;fillColor=none;top=0;left=0;bottom=0;right=0;" vertex="1" parent="9qrIkXc0WwUOy52vl9C2-22">
          <mxGeometry x="780" width="60" height="40" as="geometry" />
        </mxCell>
        <mxCell id="9qrIkXc0WwUOy52vl9C2-37" value="" style="shape=partialRectangle;html=1;whiteSpace=wrap;connectable=0;overflow=hidden;fillColor=none;top=0;left=0;bottom=0;right=0;" vertex="1" parent="9qrIkXc0WwUOy52vl9C2-22">
          <mxGeometry x="840" width="60" height="40" as="geometry" />
        </mxCell>
        <mxCell id="9qrIkXc0WwUOy52vl9C2-38" value="" style="shape=partialRectangle;html=1;whiteSpace=wrap;connectable=0;overflow=hidden;fillColor=none;top=0;left=0;bottom=0;right=0;" vertex="1" parent="9qrIkXc0WwUOy52vl9C2-22">
          <mxGeometry x="900" width="60" height="40" as="geometry" />
        </mxCell>
        <mxCell id="9qrIkXc0WwUOy52vl9C2-39" value="" style="shape=partialRectangle;html=1;whiteSpace=wrap;connectable=0;overflow=hidden;fillColor=none;top=0;left=0;bottom=0;right=0;" vertex="1" parent="9qrIkXc0WwUOy52vl9C2-22">
          <mxGeometry x="960" width="60" height="40" as="geometry" />
        </mxCell>
        <mxCell id="9qrIkXc0WwUOy52vl9C2-40" value="" style="shape=partialRectangle;html=1;whiteSpace=wrap;connectable=0;overflow=hidden;fillColor=none;top=0;left=0;bottom=0;right=0;" vertex="1" parent="9qrIkXc0WwUOy52vl9C2-22">
          <mxGeometry x="1020" width="60" height="40" as="geometry" />
        </mxCell>
        <mxCell id="9qrIkXc0WwUOy52vl9C2-41" value="" style="shape=partialRectangle;html=1;whiteSpace=wrap;connectable=0;overflow=hidden;fillColor=none;top=0;left=0;bottom=0;right=0;" vertex="1" parent="9qrIkXc0WwUOy52vl9C2-22">
          <mxGeometry x="1080" width="60" height="40" as="geometry" />
        </mxCell>
        <mxCell id="9qrIkXc0WwUOy52vl9C2-42" value="" style="shape=partialRectangle;html=1;whiteSpace=wrap;connectable=0;overflow=hidden;fillColor=none;top=0;left=0;bottom=0;right=0;" vertex="1" parent="9qrIkXc0WwUOy52vl9C2-22">
          <mxGeometry x="1140" width="60" height="40" as="geometry" />
        </mxCell>
        <mxCell id="9qrIkXc0WwUOy52vl9C2-43" value="" style="shape=partialRectangle;html=1;whiteSpace=wrap;collapsible=0;dropTarget=0;pointerEvents=0;fillColor=none;top=0;left=0;bottom=0;right=0;points=[[0,0.5],[1,0.5]];portConstraint=eastwest;" vertex="1" parent="9qrIkXc0WwUOy52vl9C2-0">
          <mxGeometry y="80" width="1200" height="40" as="geometry" />
        </mxCell>
        <mxCell id="9qrIkXc0WwUOy52vl9C2-44" value="" style="shape=partialRectangle;html=1;whiteSpace=wrap;connectable=0;overflow=hidden;fillColor=none;top=0;left=0;bottom=0;right=0;" vertex="1" parent="9qrIkXc0WwUOy52vl9C2-43">
          <mxGeometry width="60" height="40" as="geometry" />
        </mxCell>
        <mxCell id="9qrIkXc0WwUOy52vl9C2-45" value="" style="shape=partialRectangle;html=1;whiteSpace=wrap;connectable=0;overflow=hidden;fillColor=none;top=0;left=0;bottom=0;right=0;" vertex="1" parent="9qrIkXc0WwUOy52vl9C2-43">
          <mxGeometry x="60" width="60" height="40" as="geometry" />
        </mxCell>
        <mxCell id="9qrIkXc0WwUOy52vl9C2-46" value="" style="shape=partialRectangle;html=1;whiteSpace=wrap;connectable=0;overflow=hidden;fillColor=none;top=0;left=0;bottom=0;right=0;" vertex="1" parent="9qrIkXc0WwUOy52vl9C2-43">
          <mxGeometry x="120" width="60" height="40" as="geometry" />
        </mxCell>
        <mxCell id="9qrIkXc0WwUOy52vl9C2-47" value="" style="shape=partialRectangle;html=1;whiteSpace=wrap;connectable=0;overflow=hidden;fillColor=none;top=0;left=0;bottom=0;right=0;" vertex="1" parent="9qrIkXc0WwUOy52vl9C2-43">
          <mxGeometry x="180" width="60" height="40" as="geometry" />
        </mxCell>
        <mxCell id="9qrIkXc0WwUOy52vl9C2-48" value="" style="shape=partialRectangle;html=1;whiteSpace=wrap;connectable=0;overflow=hidden;fillColor=none;top=0;left=0;bottom=0;right=0;" vertex="1" parent="9qrIkXc0WwUOy52vl9C2-43">
          <mxGeometry x="240" width="60" height="40" as="geometry" />
        </mxCell>
        <mxCell id="9qrIkXc0WwUOy52vl9C2-49" value="" style="shape=partialRectangle;html=1;whiteSpace=wrap;connectable=0;overflow=hidden;fillColor=none;top=0;left=0;bottom=0;right=0;" vertex="1" parent="9qrIkXc0WwUOy52vl9C2-43">
          <mxGeometry x="300" width="60" height="40" as="geometry" />
        </mxCell>
        <mxCell id="9qrIkXc0WwUOy52vl9C2-50" value="" style="shape=partialRectangle;html=1;whiteSpace=wrap;connectable=0;overflow=hidden;fillColor=none;top=0;left=0;bottom=0;right=0;" vertex="1" parent="9qrIkXc0WwUOy52vl9C2-43">
          <mxGeometry x="360" width="60" height="40" as="geometry" />
        </mxCell>
        <mxCell id="9qrIkXc0WwUOy52vl9C2-51" value="" style="shape=partialRectangle;html=1;whiteSpace=wrap;connectable=0;overflow=hidden;fillColor=none;top=0;left=0;bottom=0;right=0;" vertex="1" parent="9qrIkXc0WwUOy52vl9C2-43">
          <mxGeometry x="420" width="60" height="40" as="geometry" />
        </mxCell>
        <mxCell id="9qrIkXc0WwUOy52vl9C2-52" value="" style="shape=partialRectangle;html=1;whiteSpace=wrap;connectable=0;overflow=hidden;fillColor=none;top=0;left=0;bottom=0;right=0;" vertex="1" parent="9qrIkXc0WwUOy52vl9C2-43">
          <mxGeometry x="480" width="60" height="40" as="geometry" />
        </mxCell>
        <mxCell id="9qrIkXc0WwUOy52vl9C2-53" value="" style="shape=partialRectangle;html=1;whiteSpace=wrap;connectable=0;overflow=hidden;fillColor=none;top=0;left=0;bottom=0;right=0;" vertex="1" parent="9qrIkXc0WwUOy52vl9C2-43">
          <mxGeometry x="540" width="60" height="40" as="geometry" />
        </mxCell>
        <mxCell id="9qrIkXc0WwUOy52vl9C2-54" value="" style="shape=partialRectangle;html=1;whiteSpace=wrap;connectable=0;overflow=hidden;fillColor=none;top=0;left=0;bottom=0;right=0;" vertex="1" parent="9qrIkXc0WwUOy52vl9C2-43">
          <mxGeometry x="600" width="60" height="40" as="geometry" />
        </mxCell>
        <mxCell id="9qrIkXc0WwUOy52vl9C2-55" value="" style="shape=partialRectangle;html=1;whiteSpace=wrap;connectable=0;overflow=hidden;fillColor=none;top=0;left=0;bottom=0;right=0;" vertex="1" parent="9qrIkXc0WwUOy52vl9C2-43">
          <mxGeometry x="660" width="60" height="40" as="geometry" />
        </mxCell>
        <mxCell id="9qrIkXc0WwUOy52vl9C2-56" value="" style="shape=partialRectangle;html=1;whiteSpace=wrap;connectable=0;overflow=hidden;fillColor=none;top=0;left=0;bottom=0;right=0;" vertex="1" parent="9qrIkXc0WwUOy52vl9C2-43">
          <mxGeometry x="720" width="60" height="40" as="geometry" />
        </mxCell>
        <mxCell id="9qrIkXc0WwUOy52vl9C2-57" value="" style="shape=partialRectangle;html=1;whiteSpace=wrap;connectable=0;overflow=hidden;fillColor=none;top=0;left=0;bottom=0;right=0;" vertex="1" parent="9qrIkXc0WwUOy52vl9C2-43">
          <mxGeometry x="780" width="60" height="40" as="geometry" />
        </mxCell>
        <mxCell id="9qrIkXc0WwUOy52vl9C2-58" value="" style="shape=partialRectangle;html=1;whiteSpace=wrap;connectable=0;overflow=hidden;fillColor=none;top=0;left=0;bottom=0;right=0;" vertex="1" parent="9qrIkXc0WwUOy52vl9C2-43">
          <mxGeometry x="840" width="60" height="40" as="geometry" />
        </mxCell>
        <mxCell id="9qrIkXc0WwUOy52vl9C2-59" value="" style="shape=partialRectangle;html=1;whiteSpace=wrap;connectable=0;overflow=hidden;fillColor=none;top=0;left=0;bottom=0;right=0;" vertex="1" parent="9qrIkXc0WwUOy52vl9C2-43">
          <mxGeometry x="900" width="60" height="40" as="geometry" />
        </mxCell>
        <mxCell id="9qrIkXc0WwUOy52vl9C2-60" value="" style="shape=partialRectangle;html=1;whiteSpace=wrap;connectable=0;overflow=hidden;fillColor=none;top=0;left=0;bottom=0;right=0;" vertex="1" parent="9qrIkXc0WwUOy52vl9C2-43">
          <mxGeometry x="960" width="60" height="40" as="geometry" />
        </mxCell>
        <mxCell id="9qrIkXc0WwUOy52vl9C2-61" value="" style="shape=partialRectangle;html=1;whiteSpace=wrap;connectable=0;overflow=hidden;fillColor=none;top=0;left=0;bottom=0;right=0;" vertex="1" parent="9qrIkXc0WwUOy52vl9C2-43">
          <mxGeometry x="1020" width="60" height="40" as="geometry" />
        </mxCell>
        <mxCell id="9qrIkXc0WwUOy52vl9C2-62" value="" style="shape=partialRectangle;html=1;whiteSpace=wrap;connectable=0;overflow=hidden;fillColor=none;top=0;left=0;bottom=0;right=0;" vertex="1" parent="9qrIkXc0WwUOy52vl9C2-43">
          <mxGeometry x="1080" width="60" height="40" as="geometry" />
        </mxCell>
        <mxCell id="9qrIkXc0WwUOy52vl9C2-63" value="" style="shape=partialRectangle;html=1;whiteSpace=wrap;connectable=0;overflow=hidden;fillColor=none;top=0;left=0;bottom=0;right=0;" vertex="1" parent="9qrIkXc0WwUOy52vl9C2-43">
          <mxGeometry x="1140" width="60" height="40" as="geometry" />
        </mxCell>
        <mxCell id="9qrIkXc0WwUOy52vl9C2-64" value="" style="shape=partialRectangle;html=1;whiteSpace=wrap;collapsible=0;dropTarget=0;pointerEvents=0;fillColor=none;top=0;left=0;bottom=0;right=0;points=[[0,0.5],[1,0.5]];portConstraint=eastwest;" vertex="1" parent="9qrIkXc0WwUOy52vl9C2-0">
          <mxGeometry y="120" width="1200" height="40" as="geometry" />
        </mxCell>
        <mxCell id="9qrIkXc0WwUOy52vl9C2-65" value="" style="shape=partialRectangle;html=1;whiteSpace=wrap;connectable=0;overflow=hidden;fillColor=none;top=0;left=0;bottom=0;right=0;" vertex="1" parent="9qrIkXc0WwUOy52vl9C2-64">
          <mxGeometry width="60" height="40" as="geometry" />
        </mxCell>
        <mxCell id="9qrIkXc0WwUOy52vl9C2-66" value="" style="shape=partialRectangle;html=1;whiteSpace=wrap;connectable=0;overflow=hidden;fillColor=none;top=0;left=0;bottom=0;right=0;" vertex="1" parent="9qrIkXc0WwUOy52vl9C2-64">
          <mxGeometry x="60" width="60" height="40" as="geometry" />
        </mxCell>
        <mxCell id="9qrIkXc0WwUOy52vl9C2-67" value="" style="shape=partialRectangle;html=1;whiteSpace=wrap;connectable=0;overflow=hidden;fillColor=none;top=0;left=0;bottom=0;right=0;" vertex="1" parent="9qrIkXc0WwUOy52vl9C2-64">
          <mxGeometry x="120" width="60" height="40" as="geometry" />
        </mxCell>
        <mxCell id="9qrIkXc0WwUOy52vl9C2-68" value="" style="shape=partialRectangle;html=1;whiteSpace=wrap;connectable=0;overflow=hidden;fillColor=none;top=0;left=0;bottom=0;right=0;" vertex="1" parent="9qrIkXc0WwUOy52vl9C2-64">
          <mxGeometry x="180" width="60" height="40" as="geometry" />
        </mxCell>
        <mxCell id="9qrIkXc0WwUOy52vl9C2-69" value="" style="shape=partialRectangle;html=1;whiteSpace=wrap;connectable=0;overflow=hidden;fillColor=none;top=0;left=0;bottom=0;right=0;" vertex="1" parent="9qrIkXc0WwUOy52vl9C2-64">
          <mxGeometry x="240" width="60" height="40" as="geometry" />
        </mxCell>
        <mxCell id="9qrIkXc0WwUOy52vl9C2-70" value="" style="shape=partialRectangle;html=1;whiteSpace=wrap;connectable=0;overflow=hidden;fillColor=none;top=0;left=0;bottom=0;right=0;" vertex="1" parent="9qrIkXc0WwUOy52vl9C2-64">
          <mxGeometry x="300" width="60" height="40" as="geometry" />
        </mxCell>
        <mxCell id="9qrIkXc0WwUOy52vl9C2-71" value="" style="shape=partialRectangle;html=1;whiteSpace=wrap;connectable=0;overflow=hidden;fillColor=none;top=0;left=0;bottom=0;right=0;" vertex="1" parent="9qrIkXc0WwUOy52vl9C2-64">
          <mxGeometry x="360" width="60" height="40" as="geometry" />
        </mxCell>
        <mxCell id="9qrIkXc0WwUOy52vl9C2-72" value="" style="shape=partialRectangle;html=1;whiteSpace=wrap;connectable=0;overflow=hidden;fillColor=none;top=0;left=0;bottom=0;right=0;" vertex="1" parent="9qrIkXc0WwUOy52vl9C2-64">
          <mxGeometry x="420" width="60" height="40" as="geometry" />
        </mxCell>
        <mxCell id="9qrIkXc0WwUOy52vl9C2-73" value="" style="shape=partialRectangle;html=1;whiteSpace=wrap;connectable=0;overflow=hidden;fillColor=none;top=0;left=0;bottom=0;right=0;" vertex="1" parent="9qrIkXc0WwUOy52vl9C2-64">
          <mxGeometry x="480" width="60" height="40" as="geometry" />
        </mxCell>
        <mxCell id="9qrIkXc0WwUOy52vl9C2-74" value="" style="shape=partialRectangle;html=1;whiteSpace=wrap;connectable=0;overflow=hidden;fillColor=none;top=0;left=0;bottom=0;right=0;" vertex="1" parent="9qrIkXc0WwUOy52vl9C2-64">
          <mxGeometry x="540" width="60" height="40" as="geometry" />
        </mxCell>
        <mxCell id="9qrIkXc0WwUOy52vl9C2-75" value="" style="shape=partialRectangle;html=1;whiteSpace=wrap;connectable=0;overflow=hidden;fillColor=none;top=0;left=0;bottom=0;right=0;" vertex="1" parent="9qrIkXc0WwUOy52vl9C2-64">
          <mxGeometry x="600" width="60" height="40" as="geometry" />
        </mxCell>
        <mxCell id="9qrIkXc0WwUOy52vl9C2-76" value="" style="shape=partialRectangle;html=1;whiteSpace=wrap;connectable=0;overflow=hidden;fillColor=none;top=0;left=0;bottom=0;right=0;" vertex="1" parent="9qrIkXc0WwUOy52vl9C2-64">
          <mxGeometry x="660" width="60" height="40" as="geometry" />
        </mxCell>
        <mxCell id="9qrIkXc0WwUOy52vl9C2-77" value="" style="shape=partialRectangle;html=1;whiteSpace=wrap;connectable=0;overflow=hidden;fillColor=none;top=0;left=0;bottom=0;right=0;" vertex="1" parent="9qrIkXc0WwUOy52vl9C2-64">
          <mxGeometry x="720" width="60" height="40" as="geometry" />
        </mxCell>
        <mxCell id="9qrIkXc0WwUOy52vl9C2-78" value="" style="shape=partialRectangle;html=1;whiteSpace=wrap;connectable=0;overflow=hidden;fillColor=none;top=0;left=0;bottom=0;right=0;" vertex="1" parent="9qrIkXc0WwUOy52vl9C2-64">
          <mxGeometry x="780" width="60" height="40" as="geometry" />
        </mxCell>
        <mxCell id="9qrIkXc0WwUOy52vl9C2-79" value="" style="shape=partialRectangle;html=1;whiteSpace=wrap;connectable=0;overflow=hidden;fillColor=none;top=0;left=0;bottom=0;right=0;" vertex="1" parent="9qrIkXc0WwUOy52vl9C2-64">
          <mxGeometry x="840" width="60" height="40" as="geometry" />
        </mxCell>
        <mxCell id="9qrIkXc0WwUOy52vl9C2-80" value="" style="shape=partialRectangle;html=1;whiteSpace=wrap;connectable=0;overflow=hidden;fillColor=none;top=0;left=0;bottom=0;right=0;" vertex="1" parent="9qrIkXc0WwUOy52vl9C2-64">
          <mxGeometry x="900" width="60" height="40" as="geometry" />
        </mxCell>
        <mxCell id="9qrIkXc0WwUOy52vl9C2-81" value="" style="shape=partialRectangle;html=1;whiteSpace=wrap;connectable=0;overflow=hidden;fillColor=none;top=0;left=0;bottom=0;right=0;" vertex="1" parent="9qrIkXc0WwUOy52vl9C2-64">
          <mxGeometry x="960" width="60" height="40" as="geometry" />
        </mxCell>
        <mxCell id="9qrIkXc0WwUOy52vl9C2-82" value="" style="shape=partialRectangle;html=1;whiteSpace=wrap;connectable=0;overflow=hidden;fillColor=none;top=0;left=0;bottom=0;right=0;" vertex="1" parent="9qrIkXc0WwUOy52vl9C2-64">
          <mxGeometry x="1020" width="60" height="40" as="geometry" />
        </mxCell>
        <mxCell id="9qrIkXc0WwUOy52vl9C2-83" value="" style="shape=partialRectangle;html=1;whiteSpace=wrap;connectable=0;overflow=hidden;fillColor=none;top=0;left=0;bottom=0;right=0;" vertex="1" parent="9qrIkXc0WwUOy52vl9C2-64">
          <mxGeometry x="1080" width="60" height="40" as="geometry" />
        </mxCell>
        <mxCell id="9qrIkXc0WwUOy52vl9C2-84" value="" style="shape=partialRectangle;html=1;whiteSpace=wrap;connectable=0;overflow=hidden;fillColor=none;top=0;left=0;bottom=0;right=0;" vertex="1" parent="9qrIkXc0WwUOy52vl9C2-64">
          <mxGeometry x="1140" width="60" height="40" as="geometry" />
        </mxCell>
        <mxCell id="9qrIkXc0WwUOy52vl9C2-85" value="" style="shape=partialRectangle;html=1;whiteSpace=wrap;collapsible=0;dropTarget=0;pointerEvents=0;fillColor=none;top=0;left=0;bottom=0;right=0;points=[[0,0.5],[1,0.5]];portConstraint=eastwest;" vertex="1" parent="9qrIkXc0WwUOy52vl9C2-0">
          <mxGeometry y="160" width="1200" height="40" as="geometry" />
        </mxCell>
        <mxCell id="9qrIkXc0WwUOy52vl9C2-86" value="" style="shape=partialRectangle;html=1;whiteSpace=wrap;connectable=0;overflow=hidden;fillColor=none;top=0;left=0;bottom=0;right=0;" vertex="1" parent="9qrIkXc0WwUOy52vl9C2-85">
          <mxGeometry width="60" height="40" as="geometry" />
        </mxCell>
        <mxCell id="9qrIkXc0WwUOy52vl9C2-87" value="" style="shape=partialRectangle;html=1;whiteSpace=wrap;connectable=0;overflow=hidden;fillColor=none;top=0;left=0;bottom=0;right=0;" vertex="1" parent="9qrIkXc0WwUOy52vl9C2-85">
          <mxGeometry x="60" width="60" height="40" as="geometry" />
        </mxCell>
        <mxCell id="9qrIkXc0WwUOy52vl9C2-88" value="" style="shape=partialRectangle;html=1;whiteSpace=wrap;connectable=0;overflow=hidden;fillColor=none;top=0;left=0;bottom=0;right=0;" vertex="1" parent="9qrIkXc0WwUOy52vl9C2-85">
          <mxGeometry x="120" width="60" height="40" as="geometry" />
        </mxCell>
        <mxCell id="9qrIkXc0WwUOy52vl9C2-89" value="" style="shape=partialRectangle;html=1;whiteSpace=wrap;connectable=0;overflow=hidden;fillColor=none;top=0;left=0;bottom=0;right=0;" vertex="1" parent="9qrIkXc0WwUOy52vl9C2-85">
          <mxGeometry x="180" width="60" height="40" as="geometry" />
        </mxCell>
        <mxCell id="9qrIkXc0WwUOy52vl9C2-90" value="" style="shape=partialRectangle;html=1;whiteSpace=wrap;connectable=0;overflow=hidden;fillColor=none;top=0;left=0;bottom=0;right=0;" vertex="1" parent="9qrIkXc0WwUOy52vl9C2-85">
          <mxGeometry x="240" width="60" height="40" as="geometry" />
        </mxCell>
        <mxCell id="9qrIkXc0WwUOy52vl9C2-91" value="" style="shape=partialRectangle;html=1;whiteSpace=wrap;connectable=0;overflow=hidden;fillColor=none;top=0;left=0;bottom=0;right=0;" vertex="1" parent="9qrIkXc0WwUOy52vl9C2-85">
          <mxGeometry x="300" width="60" height="40" as="geometry" />
        </mxCell>
        <mxCell id="9qrIkXc0WwUOy52vl9C2-92" value="" style="shape=partialRectangle;html=1;whiteSpace=wrap;connectable=0;overflow=hidden;fillColor=none;top=0;left=0;bottom=0;right=0;" vertex="1" parent="9qrIkXc0WwUOy52vl9C2-85">
          <mxGeometry x="360" width="60" height="40" as="geometry" />
        </mxCell>
        <mxCell id="9qrIkXc0WwUOy52vl9C2-93" value="" style="shape=partialRectangle;html=1;whiteSpace=wrap;connectable=0;overflow=hidden;fillColor=none;top=0;left=0;bottom=0;right=0;" vertex="1" parent="9qrIkXc0WwUOy52vl9C2-85">
          <mxGeometry x="420" width="60" height="40" as="geometry" />
        </mxCell>
        <mxCell id="9qrIkXc0WwUOy52vl9C2-94" value="" style="shape=partialRectangle;html=1;whiteSpace=wrap;connectable=0;overflow=hidden;fillColor=none;top=0;left=0;bottom=0;right=0;" vertex="1" parent="9qrIkXc0WwUOy52vl9C2-85">
          <mxGeometry x="480" width="60" height="40" as="geometry" />
        </mxCell>
        <mxCell id="9qrIkXc0WwUOy52vl9C2-95" value="" style="shape=partialRectangle;html=1;whiteSpace=wrap;connectable=0;overflow=hidden;fillColor=none;top=0;left=0;bottom=0;right=0;" vertex="1" parent="9qrIkXc0WwUOy52vl9C2-85">
          <mxGeometry x="540" width="60" height="40" as="geometry" />
        </mxCell>
        <mxCell id="9qrIkXc0WwUOy52vl9C2-96" value="" style="shape=partialRectangle;html=1;whiteSpace=wrap;connectable=0;overflow=hidden;fillColor=none;top=0;left=0;bottom=0;right=0;" vertex="1" parent="9qrIkXc0WwUOy52vl9C2-85">
          <mxGeometry x="600" width="60" height="40" as="geometry" />
        </mxCell>
        <mxCell id="9qrIkXc0WwUOy52vl9C2-97" value="" style="shape=partialRectangle;html=1;whiteSpace=wrap;connectable=0;overflow=hidden;fillColor=none;top=0;left=0;bottom=0;right=0;" vertex="1" parent="9qrIkXc0WwUOy52vl9C2-85">
          <mxGeometry x="660" width="60" height="40" as="geometry" />
        </mxCell>
        <mxCell id="9qrIkXc0WwUOy52vl9C2-98" value="" style="shape=partialRectangle;html=1;whiteSpace=wrap;connectable=0;overflow=hidden;fillColor=none;top=0;left=0;bottom=0;right=0;" vertex="1" parent="9qrIkXc0WwUOy52vl9C2-85">
          <mxGeometry x="720" width="60" height="40" as="geometry" />
        </mxCell>
        <mxCell id="9qrIkXc0WwUOy52vl9C2-99" value="" style="shape=partialRectangle;html=1;whiteSpace=wrap;connectable=0;overflow=hidden;fillColor=none;top=0;left=0;bottom=0;right=0;" vertex="1" parent="9qrIkXc0WwUOy52vl9C2-85">
          <mxGeometry x="780" width="60" height="40" as="geometry" />
        </mxCell>
        <mxCell id="9qrIkXc0WwUOy52vl9C2-100" value="" style="shape=partialRectangle;html=1;whiteSpace=wrap;connectable=0;overflow=hidden;fillColor=none;top=0;left=0;bottom=0;right=0;" vertex="1" parent="9qrIkXc0WwUOy52vl9C2-85">
          <mxGeometry x="840" width="60" height="40" as="geometry" />
        </mxCell>
        <mxCell id="9qrIkXc0WwUOy52vl9C2-101" value="" style="shape=partialRectangle;html=1;whiteSpace=wrap;connectable=0;overflow=hidden;fillColor=none;top=0;left=0;bottom=0;right=0;" vertex="1" parent="9qrIkXc0WwUOy52vl9C2-85">
          <mxGeometry x="900" width="60" height="40" as="geometry" />
        </mxCell>
        <mxCell id="9qrIkXc0WwUOy52vl9C2-102" value="" style="shape=partialRectangle;html=1;whiteSpace=wrap;connectable=0;overflow=hidden;fillColor=none;top=0;left=0;bottom=0;right=0;" vertex="1" parent="9qrIkXc0WwUOy52vl9C2-85">
          <mxGeometry x="960" width="60" height="40" as="geometry" />
        </mxCell>
        <mxCell id="9qrIkXc0WwUOy52vl9C2-103" value="" style="shape=partialRectangle;html=1;whiteSpace=wrap;connectable=0;overflow=hidden;fillColor=none;top=0;left=0;bottom=0;right=0;" vertex="1" parent="9qrIkXc0WwUOy52vl9C2-85">
          <mxGeometry x="1020" width="60" height="40" as="geometry" />
        </mxCell>
        <mxCell id="9qrIkXc0WwUOy52vl9C2-104" value="" style="shape=partialRectangle;html=1;whiteSpace=wrap;connectable=0;overflow=hidden;fillColor=none;top=0;left=0;bottom=0;right=0;" vertex="1" parent="9qrIkXc0WwUOy52vl9C2-85">
          <mxGeometry x="1080" width="60" height="40" as="geometry" />
        </mxCell>
        <mxCell id="9qrIkXc0WwUOy52vl9C2-105" value="" style="shape=partialRectangle;html=1;whiteSpace=wrap;connectable=0;overflow=hidden;fillColor=none;top=0;left=0;bottom=0;right=0;" vertex="1" parent="9qrIkXc0WwUOy52vl9C2-85">
          <mxGeometry x="1140" width="60" height="40" as="geometry" />
        </mxCell>
        <mxCell id="9qrIkXc0WwUOy52vl9C2-106" value="" style="shape=partialRectangle;html=1;whiteSpace=wrap;collapsible=0;dropTarget=0;pointerEvents=0;fillColor=none;top=0;left=0;bottom=0;right=0;points=[[0,0.5],[1,0.5]];portConstraint=eastwest;" vertex="1" parent="9qrIkXc0WwUOy52vl9C2-0">
          <mxGeometry y="200" width="1200" height="40" as="geometry" />
        </mxCell>
        <mxCell id="9qrIkXc0WwUOy52vl9C2-107" value="" style="shape=partialRectangle;html=1;whiteSpace=wrap;connectable=0;overflow=hidden;fillColor=none;top=0;left=0;bottom=0;right=0;" vertex="1" parent="9qrIkXc0WwUOy52vl9C2-106">
          <mxGeometry width="60" height="40" as="geometry" />
        </mxCell>
        <mxCell id="9qrIkXc0WwUOy52vl9C2-108" value="" style="shape=partialRectangle;html=1;whiteSpace=wrap;connectable=0;overflow=hidden;fillColor=none;top=0;left=0;bottom=0;right=0;" vertex="1" parent="9qrIkXc0WwUOy52vl9C2-106">
          <mxGeometry x="60" width="60" height="40" as="geometry" />
        </mxCell>
        <mxCell id="9qrIkXc0WwUOy52vl9C2-109" value="" style="shape=partialRectangle;html=1;whiteSpace=wrap;connectable=0;overflow=hidden;fillColor=none;top=0;left=0;bottom=0;right=0;" vertex="1" parent="9qrIkXc0WwUOy52vl9C2-106">
          <mxGeometry x="120" width="60" height="40" as="geometry" />
        </mxCell>
        <mxCell id="9qrIkXc0WwUOy52vl9C2-110" value="" style="shape=partialRectangle;html=1;whiteSpace=wrap;connectable=0;overflow=hidden;fillColor=none;top=0;left=0;bottom=0;right=0;" vertex="1" parent="9qrIkXc0WwUOy52vl9C2-106">
          <mxGeometry x="180" width="60" height="40" as="geometry" />
        </mxCell>
        <mxCell id="9qrIkXc0WwUOy52vl9C2-111" value="" style="shape=partialRectangle;html=1;whiteSpace=wrap;connectable=0;overflow=hidden;fillColor=none;top=0;left=0;bottom=0;right=0;" vertex="1" parent="9qrIkXc0WwUOy52vl9C2-106">
          <mxGeometry x="240" width="60" height="40" as="geometry" />
        </mxCell>
        <mxCell id="9qrIkXc0WwUOy52vl9C2-112" value="" style="shape=partialRectangle;html=1;whiteSpace=wrap;connectable=0;overflow=hidden;fillColor=none;top=0;left=0;bottom=0;right=0;" vertex="1" parent="9qrIkXc0WwUOy52vl9C2-106">
          <mxGeometry x="300" width="60" height="40" as="geometry" />
        </mxCell>
        <mxCell id="9qrIkXc0WwUOy52vl9C2-113" value="" style="shape=partialRectangle;html=1;whiteSpace=wrap;connectable=0;overflow=hidden;fillColor=none;top=0;left=0;bottom=0;right=0;" vertex="1" parent="9qrIkXc0WwUOy52vl9C2-106">
          <mxGeometry x="360" width="60" height="40" as="geometry" />
        </mxCell>
        <mxCell id="9qrIkXc0WwUOy52vl9C2-114" value="" style="shape=partialRectangle;html=1;whiteSpace=wrap;connectable=0;overflow=hidden;fillColor=none;top=0;left=0;bottom=0;right=0;" vertex="1" parent="9qrIkXc0WwUOy52vl9C2-106">
          <mxGeometry x="420" width="60" height="40" as="geometry" />
        </mxCell>
        <mxCell id="9qrIkXc0WwUOy52vl9C2-115" value="" style="shape=partialRectangle;html=1;whiteSpace=wrap;connectable=0;overflow=hidden;fillColor=none;top=0;left=0;bottom=0;right=0;" vertex="1" parent="9qrIkXc0WwUOy52vl9C2-106">
          <mxGeometry x="480" width="60" height="40" as="geometry" />
        </mxCell>
        <mxCell id="9qrIkXc0WwUOy52vl9C2-116" value="" style="shape=partialRectangle;html=1;whiteSpace=wrap;connectable=0;overflow=hidden;fillColor=none;top=0;left=0;bottom=0;right=0;" vertex="1" parent="9qrIkXc0WwUOy52vl9C2-106">
          <mxGeometry x="540" width="60" height="40" as="geometry" />
        </mxCell>
        <mxCell id="9qrIkXc0WwUOy52vl9C2-117" value="" style="shape=partialRectangle;html=1;whiteSpace=wrap;connectable=0;overflow=hidden;fillColor=none;top=0;left=0;bottom=0;right=0;" vertex="1" parent="9qrIkXc0WwUOy52vl9C2-106">
          <mxGeometry x="600" width="60" height="40" as="geometry" />
        </mxCell>
        <mxCell id="9qrIkXc0WwUOy52vl9C2-118" value="" style="shape=partialRectangle;html=1;whiteSpace=wrap;connectable=0;overflow=hidden;fillColor=none;top=0;left=0;bottom=0;right=0;" vertex="1" parent="9qrIkXc0WwUOy52vl9C2-106">
          <mxGeometry x="660" width="60" height="40" as="geometry" />
        </mxCell>
        <mxCell id="9qrIkXc0WwUOy52vl9C2-119" value="" style="shape=partialRectangle;html=1;whiteSpace=wrap;connectable=0;overflow=hidden;fillColor=none;top=0;left=0;bottom=0;right=0;" vertex="1" parent="9qrIkXc0WwUOy52vl9C2-106">
          <mxGeometry x="720" width="60" height="40" as="geometry" />
        </mxCell>
        <mxCell id="9qrIkXc0WwUOy52vl9C2-120" value="" style="shape=partialRectangle;html=1;whiteSpace=wrap;connectable=0;overflow=hidden;fillColor=none;top=0;left=0;bottom=0;right=0;" vertex="1" parent="9qrIkXc0WwUOy52vl9C2-106">
          <mxGeometry x="780" width="60" height="40" as="geometry" />
        </mxCell>
        <mxCell id="9qrIkXc0WwUOy52vl9C2-121" value="" style="shape=partialRectangle;html=1;whiteSpace=wrap;connectable=0;overflow=hidden;fillColor=none;top=0;left=0;bottom=0;right=0;" vertex="1" parent="9qrIkXc0WwUOy52vl9C2-106">
          <mxGeometry x="840" width="60" height="40" as="geometry" />
        </mxCell>
        <mxCell id="9qrIkXc0WwUOy52vl9C2-122" value="" style="shape=partialRectangle;html=1;whiteSpace=wrap;connectable=0;overflow=hidden;fillColor=none;top=0;left=0;bottom=0;right=0;" vertex="1" parent="9qrIkXc0WwUOy52vl9C2-106">
          <mxGeometry x="900" width="60" height="40" as="geometry" />
        </mxCell>
        <mxCell id="9qrIkXc0WwUOy52vl9C2-123" value="" style="shape=partialRectangle;html=1;whiteSpace=wrap;connectable=0;overflow=hidden;fillColor=none;top=0;left=0;bottom=0;right=0;" vertex="1" parent="9qrIkXc0WwUOy52vl9C2-106">
          <mxGeometry x="960" width="60" height="40" as="geometry" />
        </mxCell>
        <mxCell id="9qrIkXc0WwUOy52vl9C2-124" value="" style="shape=partialRectangle;html=1;whiteSpace=wrap;connectable=0;overflow=hidden;fillColor=none;top=0;left=0;bottom=0;right=0;" vertex="1" parent="9qrIkXc0WwUOy52vl9C2-106">
          <mxGeometry x="1020" width="60" height="40" as="geometry" />
        </mxCell>
        <mxCell id="9qrIkXc0WwUOy52vl9C2-125" value="" style="shape=partialRectangle;html=1;whiteSpace=wrap;connectable=0;overflow=hidden;fillColor=none;top=0;left=0;bottom=0;right=0;" vertex="1" parent="9qrIkXc0WwUOy52vl9C2-106">
          <mxGeometry x="1080" width="60" height="40" as="geometry" />
        </mxCell>
        <mxCell id="9qrIkXc0WwUOy52vl9C2-126" value="" style="shape=partialRectangle;html=1;whiteSpace=wrap;connectable=0;overflow=hidden;fillColor=none;top=0;left=0;bottom=0;right=0;" vertex="1" parent="9qrIkXc0WwUOy52vl9C2-106">
          <mxGeometry x="1140" width="60" height="40" as="geometry" />
        </mxCell>
        <mxCell id="9qrIkXc0WwUOy52vl9C2-127" value="" style="shape=partialRectangle;html=1;whiteSpace=wrap;collapsible=0;dropTarget=0;pointerEvents=0;fillColor=none;top=0;left=0;bottom=0;right=0;points=[[0,0.5],[1,0.5]];portConstraint=eastwest;" vertex="1" parent="9qrIkXc0WwUOy52vl9C2-0">
          <mxGeometry y="240" width="1200" height="40" as="geometry" />
        </mxCell>
        <mxCell id="9qrIkXc0WwUOy52vl9C2-128" value="" style="shape=partialRectangle;html=1;whiteSpace=wrap;connectable=0;overflow=hidden;fillColor=none;top=0;left=0;bottom=0;right=0;" vertex="1" parent="9qrIkXc0WwUOy52vl9C2-127">
          <mxGeometry width="60" height="40" as="geometry" />
        </mxCell>
        <mxCell id="9qrIkXc0WwUOy52vl9C2-129" value="" style="shape=partialRectangle;html=1;whiteSpace=wrap;connectable=0;overflow=hidden;fillColor=none;top=0;left=0;bottom=0;right=0;" vertex="1" parent="9qrIkXc0WwUOy52vl9C2-127">
          <mxGeometry x="60" width="60" height="40" as="geometry" />
        </mxCell>
        <mxCell id="9qrIkXc0WwUOy52vl9C2-130" value="" style="shape=partialRectangle;html=1;whiteSpace=wrap;connectable=0;overflow=hidden;fillColor=none;top=0;left=0;bottom=0;right=0;" vertex="1" parent="9qrIkXc0WwUOy52vl9C2-127">
          <mxGeometry x="120" width="60" height="40" as="geometry" />
        </mxCell>
        <mxCell id="9qrIkXc0WwUOy52vl9C2-131" value="" style="shape=partialRectangle;html=1;whiteSpace=wrap;connectable=0;overflow=hidden;fillColor=none;top=0;left=0;bottom=0;right=0;" vertex="1" parent="9qrIkXc0WwUOy52vl9C2-127">
          <mxGeometry x="180" width="60" height="40" as="geometry" />
        </mxCell>
        <mxCell id="9qrIkXc0WwUOy52vl9C2-132" value="" style="shape=partialRectangle;html=1;whiteSpace=wrap;connectable=0;overflow=hidden;fillColor=none;top=0;left=0;bottom=0;right=0;" vertex="1" parent="9qrIkXc0WwUOy52vl9C2-127">
          <mxGeometry x="240" width="60" height="40" as="geometry" />
        </mxCell>
        <mxCell id="9qrIkXc0WwUOy52vl9C2-133" value="" style="shape=partialRectangle;html=1;whiteSpace=wrap;connectable=0;overflow=hidden;fillColor=none;top=0;left=0;bottom=0;right=0;" vertex="1" parent="9qrIkXc0WwUOy52vl9C2-127">
          <mxGeometry x="300" width="60" height="40" as="geometry" />
        </mxCell>
        <mxCell id="9qrIkXc0WwUOy52vl9C2-134" value="" style="shape=partialRectangle;html=1;whiteSpace=wrap;connectable=0;overflow=hidden;fillColor=none;top=0;left=0;bottom=0;right=0;" vertex="1" parent="9qrIkXc0WwUOy52vl9C2-127">
          <mxGeometry x="360" width="60" height="40" as="geometry" />
        </mxCell>
        <mxCell id="9qrIkXc0WwUOy52vl9C2-135" value="" style="shape=partialRectangle;html=1;whiteSpace=wrap;connectable=0;overflow=hidden;fillColor=none;top=0;left=0;bottom=0;right=0;" vertex="1" parent="9qrIkXc0WwUOy52vl9C2-127">
          <mxGeometry x="420" width="60" height="40" as="geometry" />
        </mxCell>
        <mxCell id="9qrIkXc0WwUOy52vl9C2-136" value="" style="shape=partialRectangle;html=1;whiteSpace=wrap;connectable=0;overflow=hidden;fillColor=none;top=0;left=0;bottom=0;right=0;" vertex="1" parent="9qrIkXc0WwUOy52vl9C2-127">
          <mxGeometry x="480" width="60" height="40" as="geometry" />
        </mxCell>
        <mxCell id="9qrIkXc0WwUOy52vl9C2-137" value="" style="shape=partialRectangle;html=1;whiteSpace=wrap;connectable=0;overflow=hidden;fillColor=none;top=0;left=0;bottom=0;right=0;" vertex="1" parent="9qrIkXc0WwUOy52vl9C2-127">
          <mxGeometry x="540" width="60" height="40" as="geometry" />
        </mxCell>
        <mxCell id="9qrIkXc0WwUOy52vl9C2-138" value="" style="shape=partialRectangle;html=1;whiteSpace=wrap;connectable=0;overflow=hidden;fillColor=none;top=0;left=0;bottom=0;right=0;" vertex="1" parent="9qrIkXc0WwUOy52vl9C2-127">
          <mxGeometry x="600" width="60" height="40" as="geometry" />
        </mxCell>
        <mxCell id="9qrIkXc0WwUOy52vl9C2-139" value="" style="shape=partialRectangle;html=1;whiteSpace=wrap;connectable=0;overflow=hidden;fillColor=none;top=0;left=0;bottom=0;right=0;" vertex="1" parent="9qrIkXc0WwUOy52vl9C2-127">
          <mxGeometry x="660" width="60" height="40" as="geometry" />
        </mxCell>
        <mxCell id="9qrIkXc0WwUOy52vl9C2-140" value="" style="shape=partialRectangle;html=1;whiteSpace=wrap;connectable=0;overflow=hidden;fillColor=none;top=0;left=0;bottom=0;right=0;" vertex="1" parent="9qrIkXc0WwUOy52vl9C2-127">
          <mxGeometry x="720" width="60" height="40" as="geometry" />
        </mxCell>
        <mxCell id="9qrIkXc0WwUOy52vl9C2-141" value="" style="shape=partialRectangle;html=1;whiteSpace=wrap;connectable=0;overflow=hidden;fillColor=none;top=0;left=0;bottom=0;right=0;" vertex="1" parent="9qrIkXc0WwUOy52vl9C2-127">
          <mxGeometry x="780" width="60" height="40" as="geometry" />
        </mxCell>
        <mxCell id="9qrIkXc0WwUOy52vl9C2-142" value="" style="shape=partialRectangle;html=1;whiteSpace=wrap;connectable=0;overflow=hidden;fillColor=none;top=0;left=0;bottom=0;right=0;" vertex="1" parent="9qrIkXc0WwUOy52vl9C2-127">
          <mxGeometry x="840" width="60" height="40" as="geometry" />
        </mxCell>
        <mxCell id="9qrIkXc0WwUOy52vl9C2-143" value="" style="shape=partialRectangle;html=1;whiteSpace=wrap;connectable=0;overflow=hidden;fillColor=none;top=0;left=0;bottom=0;right=0;" vertex="1" parent="9qrIkXc0WwUOy52vl9C2-127">
          <mxGeometry x="900" width="60" height="40" as="geometry" />
        </mxCell>
        <mxCell id="9qrIkXc0WwUOy52vl9C2-144" value="" style="shape=partialRectangle;html=1;whiteSpace=wrap;connectable=0;overflow=hidden;fillColor=none;top=0;left=0;bottom=0;right=0;" vertex="1" parent="9qrIkXc0WwUOy52vl9C2-127">
          <mxGeometry x="960" width="60" height="40" as="geometry" />
        </mxCell>
        <mxCell id="9qrIkXc0WwUOy52vl9C2-145" value="" style="shape=partialRectangle;html=1;whiteSpace=wrap;connectable=0;overflow=hidden;fillColor=none;top=0;left=0;bottom=0;right=0;" vertex="1" parent="9qrIkXc0WwUOy52vl9C2-127">
          <mxGeometry x="1020" width="60" height="40" as="geometry" />
        </mxCell>
        <mxCell id="9qrIkXc0WwUOy52vl9C2-146" value="" style="shape=partialRectangle;html=1;whiteSpace=wrap;connectable=0;overflow=hidden;fillColor=none;top=0;left=0;bottom=0;right=0;" vertex="1" parent="9qrIkXc0WwUOy52vl9C2-127">
          <mxGeometry x="1080" width="60" height="40" as="geometry" />
        </mxCell>
        <mxCell id="9qrIkXc0WwUOy52vl9C2-147" value="" style="shape=partialRectangle;html=1;whiteSpace=wrap;connectable=0;overflow=hidden;fillColor=none;top=0;left=0;bottom=0;right=0;" vertex="1" parent="9qrIkXc0WwUOy52vl9C2-127">
          <mxGeometry x="1140" width="60" height="40" as="geometry" />
        </mxCell>
        <mxCell id="9qrIkXc0WwUOy52vl9C2-148" value="" style="shape=partialRectangle;html=1;whiteSpace=wrap;collapsible=0;dropTarget=0;pointerEvents=0;fillColor=none;top=0;left=0;bottom=0;right=0;points=[[0,0.5],[1,0.5]];portConstraint=eastwest;" vertex="1" parent="9qrIkXc0WwUOy52vl9C2-0">
          <mxGeometry y="280" width="1200" height="40" as="geometry" />
        </mxCell>
        <mxCell id="9qrIkXc0WwUOy52vl9C2-149" value="" style="shape=partialRectangle;html=1;whiteSpace=wrap;connectable=0;overflow=hidden;fillColor=none;top=0;left=0;bottom=0;right=0;" vertex="1" parent="9qrIkXc0WwUOy52vl9C2-148">
          <mxGeometry width="60" height="40" as="geometry" />
        </mxCell>
        <mxCell id="9qrIkXc0WwUOy52vl9C2-150" value="" style="shape=partialRectangle;html=1;whiteSpace=wrap;connectable=0;overflow=hidden;fillColor=none;top=0;left=0;bottom=0;right=0;" vertex="1" parent="9qrIkXc0WwUOy52vl9C2-148">
          <mxGeometry x="60" width="60" height="40" as="geometry" />
        </mxCell>
        <mxCell id="9qrIkXc0WwUOy52vl9C2-151" value="" style="shape=partialRectangle;html=1;whiteSpace=wrap;connectable=0;overflow=hidden;fillColor=none;top=0;left=0;bottom=0;right=0;" vertex="1" parent="9qrIkXc0WwUOy52vl9C2-148">
          <mxGeometry x="120" width="60" height="40" as="geometry" />
        </mxCell>
        <mxCell id="9qrIkXc0WwUOy52vl9C2-152" value="" style="shape=partialRectangle;html=1;whiteSpace=wrap;connectable=0;overflow=hidden;fillColor=none;top=0;left=0;bottom=0;right=0;" vertex="1" parent="9qrIkXc0WwUOy52vl9C2-148">
          <mxGeometry x="180" width="60" height="40" as="geometry" />
        </mxCell>
        <mxCell id="9qrIkXc0WwUOy52vl9C2-153" value="" style="shape=partialRectangle;html=1;whiteSpace=wrap;connectable=0;overflow=hidden;fillColor=none;top=0;left=0;bottom=0;right=0;" vertex="1" parent="9qrIkXc0WwUOy52vl9C2-148">
          <mxGeometry x="240" width="60" height="40" as="geometry" />
        </mxCell>
        <mxCell id="9qrIkXc0WwUOy52vl9C2-154" value="" style="shape=partialRectangle;html=1;whiteSpace=wrap;connectable=0;overflow=hidden;fillColor=none;top=0;left=0;bottom=0;right=0;" vertex="1" parent="9qrIkXc0WwUOy52vl9C2-148">
          <mxGeometry x="300" width="60" height="40" as="geometry" />
        </mxCell>
        <mxCell id="9qrIkXc0WwUOy52vl9C2-155" value="" style="shape=partialRectangle;html=1;whiteSpace=wrap;connectable=0;overflow=hidden;fillColor=none;top=0;left=0;bottom=0;right=0;" vertex="1" parent="9qrIkXc0WwUOy52vl9C2-148">
          <mxGeometry x="360" width="60" height="40" as="geometry" />
        </mxCell>
        <mxCell id="9qrIkXc0WwUOy52vl9C2-156" value="" style="shape=partialRectangle;html=1;whiteSpace=wrap;connectable=0;overflow=hidden;fillColor=none;top=0;left=0;bottom=0;right=0;" vertex="1" parent="9qrIkXc0WwUOy52vl9C2-148">
          <mxGeometry x="420" width="60" height="40" as="geometry" />
        </mxCell>
        <mxCell id="9qrIkXc0WwUOy52vl9C2-157" value="" style="shape=partialRectangle;html=1;whiteSpace=wrap;connectable=0;overflow=hidden;fillColor=none;top=0;left=0;bottom=0;right=0;" vertex="1" parent="9qrIkXc0WwUOy52vl9C2-148">
          <mxGeometry x="480" width="60" height="40" as="geometry" />
        </mxCell>
        <mxCell id="9qrIkXc0WwUOy52vl9C2-158" value="" style="shape=partialRectangle;html=1;whiteSpace=wrap;connectable=0;overflow=hidden;fillColor=none;top=0;left=0;bottom=0;right=0;" vertex="1" parent="9qrIkXc0WwUOy52vl9C2-148">
          <mxGeometry x="540" width="60" height="40" as="geometry" />
        </mxCell>
        <mxCell id="9qrIkXc0WwUOy52vl9C2-159" value="" style="shape=partialRectangle;html=1;whiteSpace=wrap;connectable=0;overflow=hidden;fillColor=none;top=0;left=0;bottom=0;right=0;" vertex="1" parent="9qrIkXc0WwUOy52vl9C2-148">
          <mxGeometry x="600" width="60" height="40" as="geometry" />
        </mxCell>
        <mxCell id="9qrIkXc0WwUOy52vl9C2-160" value="" style="shape=partialRectangle;html=1;whiteSpace=wrap;connectable=0;overflow=hidden;fillColor=none;top=0;left=0;bottom=0;right=0;" vertex="1" parent="9qrIkXc0WwUOy52vl9C2-148">
          <mxGeometry x="660" width="60" height="40" as="geometry" />
        </mxCell>
        <mxCell id="9qrIkXc0WwUOy52vl9C2-161" value="" style="shape=partialRectangle;html=1;whiteSpace=wrap;connectable=0;overflow=hidden;fillColor=none;top=0;left=0;bottom=0;right=0;" vertex="1" parent="9qrIkXc0WwUOy52vl9C2-148">
          <mxGeometry x="720" width="60" height="40" as="geometry" />
        </mxCell>
        <mxCell id="9qrIkXc0WwUOy52vl9C2-162" value="" style="shape=partialRectangle;html=1;whiteSpace=wrap;connectable=0;overflow=hidden;fillColor=none;top=0;left=0;bottom=0;right=0;" vertex="1" parent="9qrIkXc0WwUOy52vl9C2-148">
          <mxGeometry x="780" width="60" height="40" as="geometry" />
        </mxCell>
        <mxCell id="9qrIkXc0WwUOy52vl9C2-163" value="" style="shape=partialRectangle;html=1;whiteSpace=wrap;connectable=0;overflow=hidden;fillColor=none;top=0;left=0;bottom=0;right=0;" vertex="1" parent="9qrIkXc0WwUOy52vl9C2-148">
          <mxGeometry x="840" width="60" height="40" as="geometry" />
        </mxCell>
        <mxCell id="9qrIkXc0WwUOy52vl9C2-164" value="" style="shape=partialRectangle;html=1;whiteSpace=wrap;connectable=0;overflow=hidden;fillColor=none;top=0;left=0;bottom=0;right=0;" vertex="1" parent="9qrIkXc0WwUOy52vl9C2-148">
          <mxGeometry x="900" width="60" height="40" as="geometry" />
        </mxCell>
        <mxCell id="9qrIkXc0WwUOy52vl9C2-165" value="" style="shape=partialRectangle;html=1;whiteSpace=wrap;connectable=0;overflow=hidden;fillColor=none;top=0;left=0;bottom=0;right=0;" vertex="1" parent="9qrIkXc0WwUOy52vl9C2-148">
          <mxGeometry x="960" width="60" height="40" as="geometry" />
        </mxCell>
        <mxCell id="9qrIkXc0WwUOy52vl9C2-166" value="" style="shape=partialRectangle;html=1;whiteSpace=wrap;connectable=0;overflow=hidden;fillColor=none;top=0;left=0;bottom=0;right=0;" vertex="1" parent="9qrIkXc0WwUOy52vl9C2-148">
          <mxGeometry x="1020" width="60" height="40" as="geometry" />
        </mxCell>
        <mxCell id="9qrIkXc0WwUOy52vl9C2-167" value="" style="shape=partialRectangle;html=1;whiteSpace=wrap;connectable=0;overflow=hidden;fillColor=none;top=0;left=0;bottom=0;right=0;" vertex="1" parent="9qrIkXc0WwUOy52vl9C2-148">
          <mxGeometry x="1080" width="60" height="40" as="geometry" />
        </mxCell>
        <mxCell id="9qrIkXc0WwUOy52vl9C2-168" value="" style="shape=partialRectangle;html=1;whiteSpace=wrap;connectable=0;overflow=hidden;fillColor=none;top=0;left=0;bottom=0;right=0;" vertex="1" parent="9qrIkXc0WwUOy52vl9C2-148">
          <mxGeometry x="1140" width="60" height="40" as="geometry" />
        </mxCell>
        <mxCell id="9qrIkXc0WwUOy52vl9C2-169" value="" style="shape=partialRectangle;html=1;whiteSpace=wrap;collapsible=0;dropTarget=0;pointerEvents=0;fillColor=none;top=0;left=0;bottom=0;right=0;points=[[0,0.5],[1,0.5]];portConstraint=eastwest;" vertex="1" parent="9qrIkXc0WwUOy52vl9C2-0">
          <mxGeometry y="320" width="1200" height="40" as="geometry" />
        </mxCell>
        <mxCell id="9qrIkXc0WwUOy52vl9C2-170" value="" style="shape=partialRectangle;html=1;whiteSpace=wrap;connectable=0;overflow=hidden;fillColor=none;top=0;left=0;bottom=0;right=0;" vertex="1" parent="9qrIkXc0WwUOy52vl9C2-169">
          <mxGeometry width="60" height="40" as="geometry" />
        </mxCell>
        <mxCell id="9qrIkXc0WwUOy52vl9C2-171" value="" style="shape=partialRectangle;html=1;whiteSpace=wrap;connectable=0;overflow=hidden;fillColor=none;top=0;left=0;bottom=0;right=0;" vertex="1" parent="9qrIkXc0WwUOy52vl9C2-169">
          <mxGeometry x="60" width="60" height="40" as="geometry" />
        </mxCell>
        <mxCell id="9qrIkXc0WwUOy52vl9C2-172" value="" style="shape=partialRectangle;html=1;whiteSpace=wrap;connectable=0;overflow=hidden;fillColor=none;top=0;left=0;bottom=0;right=0;" vertex="1" parent="9qrIkXc0WwUOy52vl9C2-169">
          <mxGeometry x="120" width="60" height="40" as="geometry" />
        </mxCell>
        <mxCell id="9qrIkXc0WwUOy52vl9C2-173" value="" style="shape=partialRectangle;html=1;whiteSpace=wrap;connectable=0;overflow=hidden;fillColor=none;top=0;left=0;bottom=0;right=0;" vertex="1" parent="9qrIkXc0WwUOy52vl9C2-169">
          <mxGeometry x="180" width="60" height="40" as="geometry" />
        </mxCell>
        <mxCell id="9qrIkXc0WwUOy52vl9C2-174" value="" style="shape=partialRectangle;html=1;whiteSpace=wrap;connectable=0;overflow=hidden;fillColor=none;top=0;left=0;bottom=0;right=0;" vertex="1" parent="9qrIkXc0WwUOy52vl9C2-169">
          <mxGeometry x="240" width="60" height="40" as="geometry" />
        </mxCell>
        <mxCell id="9qrIkXc0WwUOy52vl9C2-175" value="" style="shape=partialRectangle;html=1;whiteSpace=wrap;connectable=0;overflow=hidden;fillColor=none;top=0;left=0;bottom=0;right=0;" vertex="1" parent="9qrIkXc0WwUOy52vl9C2-169">
          <mxGeometry x="300" width="60" height="40" as="geometry" />
        </mxCell>
        <mxCell id="9qrIkXc0WwUOy52vl9C2-176" value="" style="shape=partialRectangle;html=1;whiteSpace=wrap;connectable=0;overflow=hidden;fillColor=none;top=0;left=0;bottom=0;right=0;" vertex="1" parent="9qrIkXc0WwUOy52vl9C2-169">
          <mxGeometry x="360" width="60" height="40" as="geometry" />
        </mxCell>
        <mxCell id="9qrIkXc0WwUOy52vl9C2-177" value="" style="shape=partialRectangle;html=1;whiteSpace=wrap;connectable=0;overflow=hidden;fillColor=none;top=0;left=0;bottom=0;right=0;" vertex="1" parent="9qrIkXc0WwUOy52vl9C2-169">
          <mxGeometry x="420" width="60" height="40" as="geometry" />
        </mxCell>
        <mxCell id="9qrIkXc0WwUOy52vl9C2-178" value="" style="shape=partialRectangle;html=1;whiteSpace=wrap;connectable=0;overflow=hidden;fillColor=none;top=0;left=0;bottom=0;right=0;" vertex="1" parent="9qrIkXc0WwUOy52vl9C2-169">
          <mxGeometry x="480" width="60" height="40" as="geometry" />
        </mxCell>
        <mxCell id="9qrIkXc0WwUOy52vl9C2-179" value="" style="shape=partialRectangle;html=1;whiteSpace=wrap;connectable=0;overflow=hidden;fillColor=none;top=0;left=0;bottom=0;right=0;" vertex="1" parent="9qrIkXc0WwUOy52vl9C2-169">
          <mxGeometry x="540" width="60" height="40" as="geometry" />
        </mxCell>
        <mxCell id="9qrIkXc0WwUOy52vl9C2-180" value="" style="shape=partialRectangle;html=1;whiteSpace=wrap;connectable=0;overflow=hidden;fillColor=none;top=0;left=0;bottom=0;right=0;" vertex="1" parent="9qrIkXc0WwUOy52vl9C2-169">
          <mxGeometry x="600" width="60" height="40" as="geometry" />
        </mxCell>
        <mxCell id="9qrIkXc0WwUOy52vl9C2-181" value="" style="shape=partialRectangle;html=1;whiteSpace=wrap;connectable=0;overflow=hidden;fillColor=none;top=0;left=0;bottom=0;right=0;" vertex="1" parent="9qrIkXc0WwUOy52vl9C2-169">
          <mxGeometry x="660" width="60" height="40" as="geometry" />
        </mxCell>
        <mxCell id="9qrIkXc0WwUOy52vl9C2-182" value="" style="shape=partialRectangle;html=1;whiteSpace=wrap;connectable=0;overflow=hidden;fillColor=none;top=0;left=0;bottom=0;right=0;" vertex="1" parent="9qrIkXc0WwUOy52vl9C2-169">
          <mxGeometry x="720" width="60" height="40" as="geometry" />
        </mxCell>
        <mxCell id="9qrIkXc0WwUOy52vl9C2-183" value="" style="shape=partialRectangle;html=1;whiteSpace=wrap;connectable=0;overflow=hidden;fillColor=none;top=0;left=0;bottom=0;right=0;" vertex="1" parent="9qrIkXc0WwUOy52vl9C2-169">
          <mxGeometry x="780" width="60" height="40" as="geometry" />
        </mxCell>
        <mxCell id="9qrIkXc0WwUOy52vl9C2-184" value="" style="shape=partialRectangle;html=1;whiteSpace=wrap;connectable=0;overflow=hidden;fillColor=none;top=0;left=0;bottom=0;right=0;" vertex="1" parent="9qrIkXc0WwUOy52vl9C2-169">
          <mxGeometry x="840" width="60" height="40" as="geometry" />
        </mxCell>
        <mxCell id="9qrIkXc0WwUOy52vl9C2-185" value="" style="shape=partialRectangle;html=1;whiteSpace=wrap;connectable=0;overflow=hidden;fillColor=none;top=0;left=0;bottom=0;right=0;" vertex="1" parent="9qrIkXc0WwUOy52vl9C2-169">
          <mxGeometry x="900" width="60" height="40" as="geometry" />
        </mxCell>
        <mxCell id="9qrIkXc0WwUOy52vl9C2-186" value="" style="shape=partialRectangle;html=1;whiteSpace=wrap;connectable=0;overflow=hidden;fillColor=none;top=0;left=0;bottom=0;right=0;" vertex="1" parent="9qrIkXc0WwUOy52vl9C2-169">
          <mxGeometry x="960" width="60" height="40" as="geometry" />
        </mxCell>
        <mxCell id="9qrIkXc0WwUOy52vl9C2-187" value="" style="shape=partialRectangle;html=1;whiteSpace=wrap;connectable=0;overflow=hidden;fillColor=none;top=0;left=0;bottom=0;right=0;" vertex="1" parent="9qrIkXc0WwUOy52vl9C2-169">
          <mxGeometry x="1020" width="60" height="40" as="geometry" />
        </mxCell>
        <mxCell id="9qrIkXc0WwUOy52vl9C2-188" value="" style="shape=partialRectangle;html=1;whiteSpace=wrap;connectable=0;overflow=hidden;fillColor=none;top=0;left=0;bottom=0;right=0;" vertex="1" parent="9qrIkXc0WwUOy52vl9C2-169">
          <mxGeometry x="1080" width="60" height="40" as="geometry" />
        </mxCell>
        <mxCell id="9qrIkXc0WwUOy52vl9C2-189" value="" style="shape=partialRectangle;html=1;whiteSpace=wrap;connectable=0;overflow=hidden;fillColor=none;top=0;left=0;bottom=0;right=0;" vertex="1" parent="9qrIkXc0WwUOy52vl9C2-169">
          <mxGeometry x="1140" width="60" height="40" as="geometry" />
        </mxCell>
        <mxCell id="9qrIkXc0WwUOy52vl9C2-190" value="" style="shape=partialRectangle;html=1;whiteSpace=wrap;collapsible=0;dropTarget=0;pointerEvents=0;fillColor=none;top=0;left=0;bottom=0;right=0;points=[[0,0.5],[1,0.5]];portConstraint=eastwest;" vertex="1" parent="9qrIkXc0WwUOy52vl9C2-0">
          <mxGeometry y="360" width="1200" height="40" as="geometry" />
        </mxCell>
        <mxCell id="9qrIkXc0WwUOy52vl9C2-191" value="" style="shape=partialRectangle;html=1;whiteSpace=wrap;connectable=0;overflow=hidden;fillColor=none;top=0;left=0;bottom=0;right=0;" vertex="1" parent="9qrIkXc0WwUOy52vl9C2-190">
          <mxGeometry width="60" height="40" as="geometry" />
        </mxCell>
        <mxCell id="9qrIkXc0WwUOy52vl9C2-192" value="" style="shape=partialRectangle;html=1;whiteSpace=wrap;connectable=0;overflow=hidden;fillColor=none;top=0;left=0;bottom=0;right=0;" vertex="1" parent="9qrIkXc0WwUOy52vl9C2-190">
          <mxGeometry x="60" width="60" height="40" as="geometry" />
        </mxCell>
        <mxCell id="9qrIkXc0WwUOy52vl9C2-193" value="" style="shape=partialRectangle;html=1;whiteSpace=wrap;connectable=0;overflow=hidden;fillColor=none;top=0;left=0;bottom=0;right=0;" vertex="1" parent="9qrIkXc0WwUOy52vl9C2-190">
          <mxGeometry x="120" width="60" height="40" as="geometry" />
        </mxCell>
        <mxCell id="9qrIkXc0WwUOy52vl9C2-194" value="" style="shape=partialRectangle;html=1;whiteSpace=wrap;connectable=0;overflow=hidden;fillColor=none;top=0;left=0;bottom=0;right=0;" vertex="1" parent="9qrIkXc0WwUOy52vl9C2-190">
          <mxGeometry x="180" width="60" height="40" as="geometry" />
        </mxCell>
        <mxCell id="9qrIkXc0WwUOy52vl9C2-195" value="" style="shape=partialRectangle;html=1;whiteSpace=wrap;connectable=0;overflow=hidden;fillColor=none;top=0;left=0;bottom=0;right=0;" vertex="1" parent="9qrIkXc0WwUOy52vl9C2-190">
          <mxGeometry x="240" width="60" height="40" as="geometry" />
        </mxCell>
        <mxCell id="9qrIkXc0WwUOy52vl9C2-196" value="" style="shape=partialRectangle;html=1;whiteSpace=wrap;connectable=0;overflow=hidden;fillColor=none;top=0;left=0;bottom=0;right=0;" vertex="1" parent="9qrIkXc0WwUOy52vl9C2-190">
          <mxGeometry x="300" width="60" height="40" as="geometry" />
        </mxCell>
        <mxCell id="9qrIkXc0WwUOy52vl9C2-197" value="" style="shape=partialRectangle;html=1;whiteSpace=wrap;connectable=0;overflow=hidden;fillColor=none;top=0;left=0;bottom=0;right=0;" vertex="1" parent="9qrIkXc0WwUOy52vl9C2-190">
          <mxGeometry x="360" width="60" height="40" as="geometry" />
        </mxCell>
        <mxCell id="9qrIkXc0WwUOy52vl9C2-198" value="" style="shape=partialRectangle;html=1;whiteSpace=wrap;connectable=0;overflow=hidden;fillColor=none;top=0;left=0;bottom=0;right=0;" vertex="1" parent="9qrIkXc0WwUOy52vl9C2-190">
          <mxGeometry x="420" width="60" height="40" as="geometry" />
        </mxCell>
        <mxCell id="9qrIkXc0WwUOy52vl9C2-199" value="" style="shape=partialRectangle;html=1;whiteSpace=wrap;connectable=0;overflow=hidden;fillColor=none;top=0;left=0;bottom=0;right=0;" vertex="1" parent="9qrIkXc0WwUOy52vl9C2-190">
          <mxGeometry x="480" width="60" height="40" as="geometry" />
        </mxCell>
        <mxCell id="9qrIkXc0WwUOy52vl9C2-200" value="" style="shape=partialRectangle;html=1;whiteSpace=wrap;connectable=0;overflow=hidden;fillColor=none;top=0;left=0;bottom=0;right=0;" vertex="1" parent="9qrIkXc0WwUOy52vl9C2-190">
          <mxGeometry x="540" width="60" height="40" as="geometry" />
        </mxCell>
        <mxCell id="9qrIkXc0WwUOy52vl9C2-201" value="" style="shape=partialRectangle;html=1;whiteSpace=wrap;connectable=0;overflow=hidden;fillColor=none;top=0;left=0;bottom=0;right=0;" vertex="1" parent="9qrIkXc0WwUOy52vl9C2-190">
          <mxGeometry x="600" width="60" height="40" as="geometry" />
        </mxCell>
        <mxCell id="9qrIkXc0WwUOy52vl9C2-202" value="" style="shape=partialRectangle;html=1;whiteSpace=wrap;connectable=0;overflow=hidden;fillColor=none;top=0;left=0;bottom=0;right=0;" vertex="1" parent="9qrIkXc0WwUOy52vl9C2-190">
          <mxGeometry x="660" width="60" height="40" as="geometry" />
        </mxCell>
        <mxCell id="9qrIkXc0WwUOy52vl9C2-203" value="" style="shape=partialRectangle;html=1;whiteSpace=wrap;connectable=0;overflow=hidden;fillColor=none;top=0;left=0;bottom=0;right=0;" vertex="1" parent="9qrIkXc0WwUOy52vl9C2-190">
          <mxGeometry x="720" width="60" height="40" as="geometry" />
        </mxCell>
        <mxCell id="9qrIkXc0WwUOy52vl9C2-204" value="" style="shape=partialRectangle;html=1;whiteSpace=wrap;connectable=0;overflow=hidden;fillColor=none;top=0;left=0;bottom=0;right=0;" vertex="1" parent="9qrIkXc0WwUOy52vl9C2-190">
          <mxGeometry x="780" width="60" height="40" as="geometry" />
        </mxCell>
        <mxCell id="9qrIkXc0WwUOy52vl9C2-205" value="" style="shape=partialRectangle;html=1;whiteSpace=wrap;connectable=0;overflow=hidden;fillColor=none;top=0;left=0;bottom=0;right=0;" vertex="1" parent="9qrIkXc0WwUOy52vl9C2-190">
          <mxGeometry x="840" width="60" height="40" as="geometry" />
        </mxCell>
        <mxCell id="9qrIkXc0WwUOy52vl9C2-206" value="" style="shape=partialRectangle;html=1;whiteSpace=wrap;connectable=0;overflow=hidden;fillColor=none;top=0;left=0;bottom=0;right=0;" vertex="1" parent="9qrIkXc0WwUOy52vl9C2-190">
          <mxGeometry x="900" width="60" height="40" as="geometry" />
        </mxCell>
        <mxCell id="9qrIkXc0WwUOy52vl9C2-207" value="" style="shape=partialRectangle;html=1;whiteSpace=wrap;connectable=0;overflow=hidden;fillColor=none;top=0;left=0;bottom=0;right=0;" vertex="1" parent="9qrIkXc0WwUOy52vl9C2-190">
          <mxGeometry x="960" width="60" height="40" as="geometry" />
        </mxCell>
        <mxCell id="9qrIkXc0WwUOy52vl9C2-208" value="" style="shape=partialRectangle;html=1;whiteSpace=wrap;connectable=0;overflow=hidden;fillColor=none;top=0;left=0;bottom=0;right=0;" vertex="1" parent="9qrIkXc0WwUOy52vl9C2-190">
          <mxGeometry x="1020" width="60" height="40" as="geometry" />
        </mxCell>
        <mxCell id="9qrIkXc0WwUOy52vl9C2-209" value="" style="shape=partialRectangle;html=1;whiteSpace=wrap;connectable=0;overflow=hidden;fillColor=none;top=0;left=0;bottom=0;right=0;" vertex="1" parent="9qrIkXc0WwUOy52vl9C2-190">
          <mxGeometry x="1080" width="60" height="40" as="geometry" />
        </mxCell>
        <mxCell id="9qrIkXc0WwUOy52vl9C2-210" value="" style="shape=partialRectangle;html=1;whiteSpace=wrap;connectable=0;overflow=hidden;fillColor=none;top=0;left=0;bottom=0;right=0;" vertex="1" parent="9qrIkXc0WwUOy52vl9C2-190">
          <mxGeometry x="1140" width="60" height="40" as="geometry" />
        </mxCell>
        <mxCell id="9qrIkXc0WwUOy52vl9C2-211" value="" style="shape=partialRectangle;html=1;whiteSpace=wrap;collapsible=0;dropTarget=0;pointerEvents=0;fillColor=none;top=0;left=0;bottom=0;right=0;points=[[0,0.5],[1,0.5]];portConstraint=eastwest;" vertex="1" parent="9qrIkXc0WwUOy52vl9C2-0">
          <mxGeometry y="400" width="1200" height="40" as="geometry" />
        </mxCell>
        <mxCell id="9qrIkXc0WwUOy52vl9C2-212" value="" style="shape=partialRectangle;html=1;whiteSpace=wrap;connectable=0;overflow=hidden;fillColor=none;top=0;left=0;bottom=0;right=0;" vertex="1" parent="9qrIkXc0WwUOy52vl9C2-211">
          <mxGeometry width="60" height="40" as="geometry" />
        </mxCell>
        <mxCell id="9qrIkXc0WwUOy52vl9C2-213" value="" style="shape=partialRectangle;html=1;whiteSpace=wrap;connectable=0;overflow=hidden;fillColor=none;top=0;left=0;bottom=0;right=0;" vertex="1" parent="9qrIkXc0WwUOy52vl9C2-211">
          <mxGeometry x="60" width="60" height="40" as="geometry" />
        </mxCell>
        <mxCell id="9qrIkXc0WwUOy52vl9C2-214" value="" style="shape=partialRectangle;html=1;whiteSpace=wrap;connectable=0;overflow=hidden;fillColor=none;top=0;left=0;bottom=0;right=0;" vertex="1" parent="9qrIkXc0WwUOy52vl9C2-211">
          <mxGeometry x="120" width="60" height="40" as="geometry" />
        </mxCell>
        <mxCell id="9qrIkXc0WwUOy52vl9C2-215" value="" style="shape=partialRectangle;html=1;whiteSpace=wrap;connectable=0;overflow=hidden;fillColor=none;top=0;left=0;bottom=0;right=0;" vertex="1" parent="9qrIkXc0WwUOy52vl9C2-211">
          <mxGeometry x="180" width="60" height="40" as="geometry" />
        </mxCell>
        <mxCell id="9qrIkXc0WwUOy52vl9C2-216" value="" style="shape=partialRectangle;html=1;whiteSpace=wrap;connectable=0;overflow=hidden;fillColor=none;top=0;left=0;bottom=0;right=0;" vertex="1" parent="9qrIkXc0WwUOy52vl9C2-211">
          <mxGeometry x="240" width="60" height="40" as="geometry" />
        </mxCell>
        <mxCell id="9qrIkXc0WwUOy52vl9C2-217" value="" style="shape=partialRectangle;html=1;whiteSpace=wrap;connectable=0;overflow=hidden;fillColor=none;top=0;left=0;bottom=0;right=0;" vertex="1" parent="9qrIkXc0WwUOy52vl9C2-211">
          <mxGeometry x="300" width="60" height="40" as="geometry" />
        </mxCell>
        <mxCell id="9qrIkXc0WwUOy52vl9C2-218" value="" style="shape=partialRectangle;html=1;whiteSpace=wrap;connectable=0;overflow=hidden;fillColor=none;top=0;left=0;bottom=0;right=0;" vertex="1" parent="9qrIkXc0WwUOy52vl9C2-211">
          <mxGeometry x="360" width="60" height="40" as="geometry" />
        </mxCell>
        <mxCell id="9qrIkXc0WwUOy52vl9C2-219" value="" style="shape=partialRectangle;html=1;whiteSpace=wrap;connectable=0;overflow=hidden;fillColor=none;top=0;left=0;bottom=0;right=0;" vertex="1" parent="9qrIkXc0WwUOy52vl9C2-211">
          <mxGeometry x="420" width="60" height="40" as="geometry" />
        </mxCell>
        <mxCell id="9qrIkXc0WwUOy52vl9C2-220" value="" style="shape=partialRectangle;html=1;whiteSpace=wrap;connectable=0;overflow=hidden;fillColor=none;top=0;left=0;bottom=0;right=0;" vertex="1" parent="9qrIkXc0WwUOy52vl9C2-211">
          <mxGeometry x="480" width="60" height="40" as="geometry" />
        </mxCell>
        <mxCell id="9qrIkXc0WwUOy52vl9C2-221" value="" style="shape=partialRectangle;html=1;whiteSpace=wrap;connectable=0;overflow=hidden;fillColor=none;top=0;left=0;bottom=0;right=0;" vertex="1" parent="9qrIkXc0WwUOy52vl9C2-211">
          <mxGeometry x="540" width="60" height="40" as="geometry" />
        </mxCell>
        <mxCell id="9qrIkXc0WwUOy52vl9C2-222" value="" style="shape=partialRectangle;html=1;whiteSpace=wrap;connectable=0;overflow=hidden;fillColor=none;top=0;left=0;bottom=0;right=0;" vertex="1" parent="9qrIkXc0WwUOy52vl9C2-211">
          <mxGeometry x="600" width="60" height="40" as="geometry" />
        </mxCell>
        <mxCell id="9qrIkXc0WwUOy52vl9C2-223" value="" style="shape=partialRectangle;html=1;whiteSpace=wrap;connectable=0;overflow=hidden;fillColor=none;top=0;left=0;bottom=0;right=0;" vertex="1" parent="9qrIkXc0WwUOy52vl9C2-211">
          <mxGeometry x="660" width="60" height="40" as="geometry" />
        </mxCell>
        <mxCell id="9qrIkXc0WwUOy52vl9C2-224" value="" style="shape=partialRectangle;html=1;whiteSpace=wrap;connectable=0;overflow=hidden;fillColor=none;top=0;left=0;bottom=0;right=0;" vertex="1" parent="9qrIkXc0WwUOy52vl9C2-211">
          <mxGeometry x="720" width="60" height="40" as="geometry" />
        </mxCell>
        <mxCell id="9qrIkXc0WwUOy52vl9C2-225" value="" style="shape=partialRectangle;html=1;whiteSpace=wrap;connectable=0;overflow=hidden;fillColor=none;top=0;left=0;bottom=0;right=0;" vertex="1" parent="9qrIkXc0WwUOy52vl9C2-211">
          <mxGeometry x="780" width="60" height="40" as="geometry" />
        </mxCell>
        <mxCell id="9qrIkXc0WwUOy52vl9C2-226" value="" style="shape=partialRectangle;html=1;whiteSpace=wrap;connectable=0;overflow=hidden;fillColor=none;top=0;left=0;bottom=0;right=0;" vertex="1" parent="9qrIkXc0WwUOy52vl9C2-211">
          <mxGeometry x="840" width="60" height="40" as="geometry" />
        </mxCell>
        <mxCell id="9qrIkXc0WwUOy52vl9C2-227" value="" style="shape=partialRectangle;html=1;whiteSpace=wrap;connectable=0;overflow=hidden;fillColor=none;top=0;left=0;bottom=0;right=0;" vertex="1" parent="9qrIkXc0WwUOy52vl9C2-211">
          <mxGeometry x="900" width="60" height="40" as="geometry" />
        </mxCell>
        <mxCell id="9qrIkXc0WwUOy52vl9C2-228" value="" style="shape=partialRectangle;html=1;whiteSpace=wrap;connectable=0;overflow=hidden;fillColor=none;top=0;left=0;bottom=0;right=0;" vertex="1" parent="9qrIkXc0WwUOy52vl9C2-211">
          <mxGeometry x="960" width="60" height="40" as="geometry" />
        </mxCell>
        <mxCell id="9qrIkXc0WwUOy52vl9C2-229" value="" style="shape=partialRectangle;html=1;whiteSpace=wrap;connectable=0;overflow=hidden;fillColor=none;top=0;left=0;bottom=0;right=0;" vertex="1" parent="9qrIkXc0WwUOy52vl9C2-211">
          <mxGeometry x="1020" width="60" height="40" as="geometry" />
        </mxCell>
        <mxCell id="9qrIkXc0WwUOy52vl9C2-230" value="" style="shape=partialRectangle;html=1;whiteSpace=wrap;connectable=0;overflow=hidden;fillColor=none;top=0;left=0;bottom=0;right=0;" vertex="1" parent="9qrIkXc0WwUOy52vl9C2-211">
          <mxGeometry x="1080" width="60" height="40" as="geometry" />
        </mxCell>
        <mxCell id="9qrIkXc0WwUOy52vl9C2-231" value="" style="shape=partialRectangle;html=1;whiteSpace=wrap;connectable=0;overflow=hidden;fillColor=none;top=0;left=0;bottom=0;right=0;" vertex="1" parent="9qrIkXc0WwUOy52vl9C2-211">
          <mxGeometry x="1140" width="60" height="40" as="geometry" />
        </mxCell>
        <mxCell id="9qrIkXc0WwUOy52vl9C2-232" value="" style="shape=partialRectangle;html=1;whiteSpace=wrap;collapsible=0;dropTarget=0;pointerEvents=0;fillColor=none;top=0;left=0;bottom=0;right=0;points=[[0,0.5],[1,0.5]];portConstraint=eastwest;" vertex="1" parent="9qrIkXc0WwUOy52vl9C2-0">
          <mxGeometry y="440" width="1200" height="40" as="geometry" />
        </mxCell>
        <mxCell id="9qrIkXc0WwUOy52vl9C2-233" value="" style="shape=partialRectangle;html=1;whiteSpace=wrap;connectable=0;overflow=hidden;fillColor=none;top=0;left=0;bottom=0;right=0;" vertex="1" parent="9qrIkXc0WwUOy52vl9C2-232">
          <mxGeometry width="60" height="40" as="geometry" />
        </mxCell>
        <mxCell id="9qrIkXc0WwUOy52vl9C2-234" value="" style="shape=partialRectangle;html=1;whiteSpace=wrap;connectable=0;overflow=hidden;fillColor=none;top=0;left=0;bottom=0;right=0;" vertex="1" parent="9qrIkXc0WwUOy52vl9C2-232">
          <mxGeometry x="60" width="60" height="40" as="geometry" />
        </mxCell>
        <mxCell id="9qrIkXc0WwUOy52vl9C2-235" value="" style="shape=partialRectangle;html=1;whiteSpace=wrap;connectable=0;overflow=hidden;fillColor=none;top=0;left=0;bottom=0;right=0;" vertex="1" parent="9qrIkXc0WwUOy52vl9C2-232">
          <mxGeometry x="120" width="60" height="40" as="geometry" />
        </mxCell>
        <mxCell id="9qrIkXc0WwUOy52vl9C2-236" value="" style="shape=partialRectangle;html=1;whiteSpace=wrap;connectable=0;overflow=hidden;fillColor=none;top=0;left=0;bottom=0;right=0;" vertex="1" parent="9qrIkXc0WwUOy52vl9C2-232">
          <mxGeometry x="180" width="60" height="40" as="geometry" />
        </mxCell>
        <mxCell id="9qrIkXc0WwUOy52vl9C2-237" value="" style="shape=partialRectangle;html=1;whiteSpace=wrap;connectable=0;overflow=hidden;fillColor=none;top=0;left=0;bottom=0;right=0;" vertex="1" parent="9qrIkXc0WwUOy52vl9C2-232">
          <mxGeometry x="240" width="60" height="40" as="geometry" />
        </mxCell>
        <mxCell id="9qrIkXc0WwUOy52vl9C2-238" value="" style="shape=partialRectangle;html=1;whiteSpace=wrap;connectable=0;overflow=hidden;fillColor=none;top=0;left=0;bottom=0;right=0;" vertex="1" parent="9qrIkXc0WwUOy52vl9C2-232">
          <mxGeometry x="300" width="60" height="40" as="geometry" />
        </mxCell>
        <mxCell id="9qrIkXc0WwUOy52vl9C2-239" value="" style="shape=partialRectangle;html=1;whiteSpace=wrap;connectable=0;overflow=hidden;fillColor=none;top=0;left=0;bottom=0;right=0;" vertex="1" parent="9qrIkXc0WwUOy52vl9C2-232">
          <mxGeometry x="360" width="60" height="40" as="geometry" />
        </mxCell>
        <mxCell id="9qrIkXc0WwUOy52vl9C2-240" value="" style="shape=partialRectangle;html=1;whiteSpace=wrap;connectable=0;overflow=hidden;fillColor=none;top=0;left=0;bottom=0;right=0;" vertex="1" parent="9qrIkXc0WwUOy52vl9C2-232">
          <mxGeometry x="420" width="60" height="40" as="geometry" />
        </mxCell>
        <mxCell id="9qrIkXc0WwUOy52vl9C2-241" value="" style="shape=partialRectangle;html=1;whiteSpace=wrap;connectable=0;overflow=hidden;fillColor=none;top=0;left=0;bottom=0;right=0;" vertex="1" parent="9qrIkXc0WwUOy52vl9C2-232">
          <mxGeometry x="480" width="60" height="40" as="geometry" />
        </mxCell>
        <mxCell id="9qrIkXc0WwUOy52vl9C2-242" value="" style="shape=partialRectangle;html=1;whiteSpace=wrap;connectable=0;overflow=hidden;fillColor=none;top=0;left=0;bottom=0;right=0;" vertex="1" parent="9qrIkXc0WwUOy52vl9C2-232">
          <mxGeometry x="540" width="60" height="40" as="geometry" />
        </mxCell>
        <mxCell id="9qrIkXc0WwUOy52vl9C2-243" value="" style="shape=partialRectangle;html=1;whiteSpace=wrap;connectable=0;overflow=hidden;fillColor=none;top=0;left=0;bottom=0;right=0;" vertex="1" parent="9qrIkXc0WwUOy52vl9C2-232">
          <mxGeometry x="600" width="60" height="40" as="geometry" />
        </mxCell>
        <mxCell id="9qrIkXc0WwUOy52vl9C2-244" value="" style="shape=partialRectangle;html=1;whiteSpace=wrap;connectable=0;overflow=hidden;fillColor=none;top=0;left=0;bottom=0;right=0;" vertex="1" parent="9qrIkXc0WwUOy52vl9C2-232">
          <mxGeometry x="660" width="60" height="40" as="geometry" />
        </mxCell>
        <mxCell id="9qrIkXc0WwUOy52vl9C2-245" value="" style="shape=partialRectangle;html=1;whiteSpace=wrap;connectable=0;overflow=hidden;fillColor=none;top=0;left=0;bottom=0;right=0;" vertex="1" parent="9qrIkXc0WwUOy52vl9C2-232">
          <mxGeometry x="720" width="60" height="40" as="geometry" />
        </mxCell>
        <mxCell id="9qrIkXc0WwUOy52vl9C2-246" value="" style="shape=partialRectangle;html=1;whiteSpace=wrap;connectable=0;overflow=hidden;fillColor=none;top=0;left=0;bottom=0;right=0;" vertex="1" parent="9qrIkXc0WwUOy52vl9C2-232">
          <mxGeometry x="780" width="60" height="40" as="geometry" />
        </mxCell>
        <mxCell id="9qrIkXc0WwUOy52vl9C2-247" value="" style="shape=partialRectangle;html=1;whiteSpace=wrap;connectable=0;overflow=hidden;fillColor=none;top=0;left=0;bottom=0;right=0;" vertex="1" parent="9qrIkXc0WwUOy52vl9C2-232">
          <mxGeometry x="840" width="60" height="40" as="geometry" />
        </mxCell>
        <mxCell id="9qrIkXc0WwUOy52vl9C2-248" value="" style="shape=partialRectangle;html=1;whiteSpace=wrap;connectable=0;overflow=hidden;fillColor=none;top=0;left=0;bottom=0;right=0;" vertex="1" parent="9qrIkXc0WwUOy52vl9C2-232">
          <mxGeometry x="900" width="60" height="40" as="geometry" />
        </mxCell>
        <mxCell id="9qrIkXc0WwUOy52vl9C2-249" value="" style="shape=partialRectangle;html=1;whiteSpace=wrap;connectable=0;overflow=hidden;fillColor=none;top=0;left=0;bottom=0;right=0;" vertex="1" parent="9qrIkXc0WwUOy52vl9C2-232">
          <mxGeometry x="960" width="60" height="40" as="geometry" />
        </mxCell>
        <mxCell id="9qrIkXc0WwUOy52vl9C2-250" value="" style="shape=partialRectangle;html=1;whiteSpace=wrap;connectable=0;overflow=hidden;fillColor=none;top=0;left=0;bottom=0;right=0;" vertex="1" parent="9qrIkXc0WwUOy52vl9C2-232">
          <mxGeometry x="1020" width="60" height="40" as="geometry" />
        </mxCell>
        <mxCell id="9qrIkXc0WwUOy52vl9C2-251" value="" style="shape=partialRectangle;html=1;whiteSpace=wrap;connectable=0;overflow=hidden;fillColor=none;top=0;left=0;bottom=0;right=0;" vertex="1" parent="9qrIkXc0WwUOy52vl9C2-232">
          <mxGeometry x="1080" width="60" height="40" as="geometry" />
        </mxCell>
        <mxCell id="9qrIkXc0WwUOy52vl9C2-252" value="" style="shape=partialRectangle;html=1;whiteSpace=wrap;connectable=0;overflow=hidden;fillColor=none;top=0;left=0;bottom=0;right=0;" vertex="1" parent="9qrIkXc0WwUOy52vl9C2-232">
          <mxGeometry x="1140" width="60" height="40" as="geometry" />
        </mxCell>
        <mxCell id="9qrIkXc0WwUOy52vl9C2-253" value="" style="shape=partialRectangle;html=1;whiteSpace=wrap;collapsible=0;dropTarget=0;pointerEvents=0;fillColor=none;top=0;left=0;bottom=0;right=0;points=[[0,0.5],[1,0.5]];portConstraint=eastwest;" vertex="1" parent="9qrIkXc0WwUOy52vl9C2-0">
          <mxGeometry y="480" width="1200" height="40" as="geometry" />
        </mxCell>
        <mxCell id="9qrIkXc0WwUOy52vl9C2-254" value="" style="shape=partialRectangle;html=1;whiteSpace=wrap;connectable=0;overflow=hidden;fillColor=none;top=0;left=0;bottom=0;right=0;" vertex="1" parent="9qrIkXc0WwUOy52vl9C2-253">
          <mxGeometry width="60" height="40" as="geometry" />
        </mxCell>
        <mxCell id="9qrIkXc0WwUOy52vl9C2-255" value="" style="shape=partialRectangle;html=1;whiteSpace=wrap;connectable=0;overflow=hidden;fillColor=none;top=0;left=0;bottom=0;right=0;" vertex="1" parent="9qrIkXc0WwUOy52vl9C2-253">
          <mxGeometry x="60" width="60" height="40" as="geometry" />
        </mxCell>
        <mxCell id="9qrIkXc0WwUOy52vl9C2-256" value="" style="shape=partialRectangle;html=1;whiteSpace=wrap;connectable=0;overflow=hidden;fillColor=none;top=0;left=0;bottom=0;right=0;" vertex="1" parent="9qrIkXc0WwUOy52vl9C2-253">
          <mxGeometry x="120" width="60" height="40" as="geometry" />
        </mxCell>
        <mxCell id="9qrIkXc0WwUOy52vl9C2-257" value="" style="shape=partialRectangle;html=1;whiteSpace=wrap;connectable=0;overflow=hidden;fillColor=none;top=0;left=0;bottom=0;right=0;" vertex="1" parent="9qrIkXc0WwUOy52vl9C2-253">
          <mxGeometry x="180" width="60" height="40" as="geometry" />
        </mxCell>
        <mxCell id="9qrIkXc0WwUOy52vl9C2-258" value="" style="shape=partialRectangle;html=1;whiteSpace=wrap;connectable=0;overflow=hidden;fillColor=none;top=0;left=0;bottom=0;right=0;" vertex="1" parent="9qrIkXc0WwUOy52vl9C2-253">
          <mxGeometry x="240" width="60" height="40" as="geometry" />
        </mxCell>
        <mxCell id="9qrIkXc0WwUOy52vl9C2-259" value="" style="shape=partialRectangle;html=1;whiteSpace=wrap;connectable=0;overflow=hidden;fillColor=none;top=0;left=0;bottom=0;right=0;" vertex="1" parent="9qrIkXc0WwUOy52vl9C2-253">
          <mxGeometry x="300" width="60" height="40" as="geometry" />
        </mxCell>
        <mxCell id="9qrIkXc0WwUOy52vl9C2-260" value="" style="shape=partialRectangle;html=1;whiteSpace=wrap;connectable=0;overflow=hidden;fillColor=none;top=0;left=0;bottom=0;right=0;" vertex="1" parent="9qrIkXc0WwUOy52vl9C2-253">
          <mxGeometry x="360" width="60" height="40" as="geometry" />
        </mxCell>
        <mxCell id="9qrIkXc0WwUOy52vl9C2-261" value="" style="shape=partialRectangle;html=1;whiteSpace=wrap;connectable=0;overflow=hidden;fillColor=none;top=0;left=0;bottom=0;right=0;" vertex="1" parent="9qrIkXc0WwUOy52vl9C2-253">
          <mxGeometry x="420" width="60" height="40" as="geometry" />
        </mxCell>
        <mxCell id="9qrIkXc0WwUOy52vl9C2-262" value="" style="shape=partialRectangle;html=1;whiteSpace=wrap;connectable=0;overflow=hidden;fillColor=none;top=0;left=0;bottom=0;right=0;" vertex="1" parent="9qrIkXc0WwUOy52vl9C2-253">
          <mxGeometry x="480" width="60" height="40" as="geometry" />
        </mxCell>
        <mxCell id="9qrIkXc0WwUOy52vl9C2-263" value="" style="shape=partialRectangle;html=1;whiteSpace=wrap;connectable=0;overflow=hidden;fillColor=none;top=0;left=0;bottom=0;right=0;" vertex="1" parent="9qrIkXc0WwUOy52vl9C2-253">
          <mxGeometry x="540" width="60" height="40" as="geometry" />
        </mxCell>
        <mxCell id="9qrIkXc0WwUOy52vl9C2-264" value="" style="shape=partialRectangle;html=1;whiteSpace=wrap;connectable=0;overflow=hidden;fillColor=none;top=0;left=0;bottom=0;right=0;" vertex="1" parent="9qrIkXc0WwUOy52vl9C2-253">
          <mxGeometry x="600" width="60" height="40" as="geometry" />
        </mxCell>
        <mxCell id="9qrIkXc0WwUOy52vl9C2-265" value="" style="shape=partialRectangle;html=1;whiteSpace=wrap;connectable=0;overflow=hidden;fillColor=none;top=0;left=0;bottom=0;right=0;" vertex="1" parent="9qrIkXc0WwUOy52vl9C2-253">
          <mxGeometry x="660" width="60" height="40" as="geometry" />
        </mxCell>
        <mxCell id="9qrIkXc0WwUOy52vl9C2-266" value="" style="shape=partialRectangle;html=1;whiteSpace=wrap;connectable=0;overflow=hidden;fillColor=none;top=0;left=0;bottom=0;right=0;" vertex="1" parent="9qrIkXc0WwUOy52vl9C2-253">
          <mxGeometry x="720" width="60" height="40" as="geometry" />
        </mxCell>
        <mxCell id="9qrIkXc0WwUOy52vl9C2-267" value="" style="shape=partialRectangle;html=1;whiteSpace=wrap;connectable=0;overflow=hidden;fillColor=none;top=0;left=0;bottom=0;right=0;" vertex="1" parent="9qrIkXc0WwUOy52vl9C2-253">
          <mxGeometry x="780" width="60" height="40" as="geometry" />
        </mxCell>
        <mxCell id="9qrIkXc0WwUOy52vl9C2-268" value="" style="shape=partialRectangle;html=1;whiteSpace=wrap;connectable=0;overflow=hidden;fillColor=none;top=0;left=0;bottom=0;right=0;" vertex="1" parent="9qrIkXc0WwUOy52vl9C2-253">
          <mxGeometry x="840" width="60" height="40" as="geometry" />
        </mxCell>
        <mxCell id="9qrIkXc0WwUOy52vl9C2-269" value="" style="shape=partialRectangle;html=1;whiteSpace=wrap;connectable=0;overflow=hidden;fillColor=none;top=0;left=0;bottom=0;right=0;" vertex="1" parent="9qrIkXc0WwUOy52vl9C2-253">
          <mxGeometry x="900" width="60" height="40" as="geometry" />
        </mxCell>
        <mxCell id="9qrIkXc0WwUOy52vl9C2-270" value="" style="shape=partialRectangle;html=1;whiteSpace=wrap;connectable=0;overflow=hidden;fillColor=none;top=0;left=0;bottom=0;right=0;" vertex="1" parent="9qrIkXc0WwUOy52vl9C2-253">
          <mxGeometry x="960" width="60" height="40" as="geometry" />
        </mxCell>
        <mxCell id="9qrIkXc0WwUOy52vl9C2-271" value="" style="shape=partialRectangle;html=1;whiteSpace=wrap;connectable=0;overflow=hidden;fillColor=none;top=0;left=0;bottom=0;right=0;" vertex="1" parent="9qrIkXc0WwUOy52vl9C2-253">
          <mxGeometry x="1020" width="60" height="40" as="geometry" />
        </mxCell>
        <mxCell id="9qrIkXc0WwUOy52vl9C2-272" value="" style="shape=partialRectangle;html=1;whiteSpace=wrap;connectable=0;overflow=hidden;fillColor=none;top=0;left=0;bottom=0;right=0;" vertex="1" parent="9qrIkXc0WwUOy52vl9C2-253">
          <mxGeometry x="1080" width="60" height="40" as="geometry" />
        </mxCell>
        <mxCell id="9qrIkXc0WwUOy52vl9C2-273" value="" style="shape=partialRectangle;html=1;whiteSpace=wrap;connectable=0;overflow=hidden;fillColor=none;top=0;left=0;bottom=0;right=0;" vertex="1" parent="9qrIkXc0WwUOy52vl9C2-253">
          <mxGeometry x="1140" width="60" height="40" as="geometry" />
        </mxCell>
        <mxCell id="9qrIkXc0WwUOy52vl9C2-274" value="" style="shape=partialRectangle;html=1;whiteSpace=wrap;collapsible=0;dropTarget=0;pointerEvents=0;fillColor=none;top=0;left=0;bottom=0;right=0;points=[[0,0.5],[1,0.5]];portConstraint=eastwest;" vertex="1" parent="9qrIkXc0WwUOy52vl9C2-0">
          <mxGeometry y="520" width="1200" height="40" as="geometry" />
        </mxCell>
        <mxCell id="9qrIkXc0WwUOy52vl9C2-275" value="" style="shape=partialRectangle;html=1;whiteSpace=wrap;connectable=0;overflow=hidden;fillColor=none;top=0;left=0;bottom=0;right=0;" vertex="1" parent="9qrIkXc0WwUOy52vl9C2-274">
          <mxGeometry width="60" height="40" as="geometry" />
        </mxCell>
        <mxCell id="9qrIkXc0WwUOy52vl9C2-276" value="" style="shape=partialRectangle;html=1;whiteSpace=wrap;connectable=0;overflow=hidden;fillColor=none;top=0;left=0;bottom=0;right=0;" vertex="1" parent="9qrIkXc0WwUOy52vl9C2-274">
          <mxGeometry x="60" width="60" height="40" as="geometry" />
        </mxCell>
        <mxCell id="9qrIkXc0WwUOy52vl9C2-277" value="" style="shape=partialRectangle;html=1;whiteSpace=wrap;connectable=0;overflow=hidden;fillColor=none;top=0;left=0;bottom=0;right=0;" vertex="1" parent="9qrIkXc0WwUOy52vl9C2-274">
          <mxGeometry x="120" width="60" height="40" as="geometry" />
        </mxCell>
        <mxCell id="9qrIkXc0WwUOy52vl9C2-278" value="" style="shape=partialRectangle;html=1;whiteSpace=wrap;connectable=0;overflow=hidden;fillColor=none;top=0;left=0;bottom=0;right=0;" vertex="1" parent="9qrIkXc0WwUOy52vl9C2-274">
          <mxGeometry x="180" width="60" height="40" as="geometry" />
        </mxCell>
        <mxCell id="9qrIkXc0WwUOy52vl9C2-279" value="" style="shape=partialRectangle;html=1;whiteSpace=wrap;connectable=0;overflow=hidden;fillColor=none;top=0;left=0;bottom=0;right=0;" vertex="1" parent="9qrIkXc0WwUOy52vl9C2-274">
          <mxGeometry x="240" width="60" height="40" as="geometry" />
        </mxCell>
        <mxCell id="9qrIkXc0WwUOy52vl9C2-280" value="" style="shape=partialRectangle;html=1;whiteSpace=wrap;connectable=0;overflow=hidden;fillColor=none;top=0;left=0;bottom=0;right=0;" vertex="1" parent="9qrIkXc0WwUOy52vl9C2-274">
          <mxGeometry x="300" width="60" height="40" as="geometry" />
        </mxCell>
        <mxCell id="9qrIkXc0WwUOy52vl9C2-281" value="" style="shape=partialRectangle;html=1;whiteSpace=wrap;connectable=0;overflow=hidden;fillColor=none;top=0;left=0;bottom=0;right=0;" vertex="1" parent="9qrIkXc0WwUOy52vl9C2-274">
          <mxGeometry x="360" width="60" height="40" as="geometry" />
        </mxCell>
        <mxCell id="9qrIkXc0WwUOy52vl9C2-282" value="" style="shape=partialRectangle;html=1;whiteSpace=wrap;connectable=0;overflow=hidden;fillColor=none;top=0;left=0;bottom=0;right=0;" vertex="1" parent="9qrIkXc0WwUOy52vl9C2-274">
          <mxGeometry x="420" width="60" height="40" as="geometry" />
        </mxCell>
        <mxCell id="9qrIkXc0WwUOy52vl9C2-283" value="" style="shape=partialRectangle;html=1;whiteSpace=wrap;connectable=0;overflow=hidden;fillColor=none;top=0;left=0;bottom=0;right=0;" vertex="1" parent="9qrIkXc0WwUOy52vl9C2-274">
          <mxGeometry x="480" width="60" height="40" as="geometry" />
        </mxCell>
        <mxCell id="9qrIkXc0WwUOy52vl9C2-284" value="" style="shape=partialRectangle;html=1;whiteSpace=wrap;connectable=0;overflow=hidden;fillColor=none;top=0;left=0;bottom=0;right=0;" vertex="1" parent="9qrIkXc0WwUOy52vl9C2-274">
          <mxGeometry x="540" width="60" height="40" as="geometry" />
        </mxCell>
        <mxCell id="9qrIkXc0WwUOy52vl9C2-285" value="" style="shape=partialRectangle;html=1;whiteSpace=wrap;connectable=0;overflow=hidden;fillColor=none;top=0;left=0;bottom=0;right=0;" vertex="1" parent="9qrIkXc0WwUOy52vl9C2-274">
          <mxGeometry x="600" width="60" height="40" as="geometry" />
        </mxCell>
        <mxCell id="9qrIkXc0WwUOy52vl9C2-286" value="" style="shape=partialRectangle;html=1;whiteSpace=wrap;connectable=0;overflow=hidden;fillColor=none;top=0;left=0;bottom=0;right=0;" vertex="1" parent="9qrIkXc0WwUOy52vl9C2-274">
          <mxGeometry x="660" width="60" height="40" as="geometry" />
        </mxCell>
        <mxCell id="9qrIkXc0WwUOy52vl9C2-287" value="" style="shape=partialRectangle;html=1;whiteSpace=wrap;connectable=0;overflow=hidden;fillColor=none;top=0;left=0;bottom=0;right=0;" vertex="1" parent="9qrIkXc0WwUOy52vl9C2-274">
          <mxGeometry x="720" width="60" height="40" as="geometry" />
        </mxCell>
        <mxCell id="9qrIkXc0WwUOy52vl9C2-288" value="" style="shape=partialRectangle;html=1;whiteSpace=wrap;connectable=0;overflow=hidden;fillColor=none;top=0;left=0;bottom=0;right=0;" vertex="1" parent="9qrIkXc0WwUOy52vl9C2-274">
          <mxGeometry x="780" width="60" height="40" as="geometry" />
        </mxCell>
        <mxCell id="9qrIkXc0WwUOy52vl9C2-289" value="" style="shape=partialRectangle;html=1;whiteSpace=wrap;connectable=0;overflow=hidden;fillColor=none;top=0;left=0;bottom=0;right=0;" vertex="1" parent="9qrIkXc0WwUOy52vl9C2-274">
          <mxGeometry x="840" width="60" height="40" as="geometry" />
        </mxCell>
        <mxCell id="9qrIkXc0WwUOy52vl9C2-290" value="" style="shape=partialRectangle;html=1;whiteSpace=wrap;connectable=0;overflow=hidden;fillColor=none;top=0;left=0;bottom=0;right=0;" vertex="1" parent="9qrIkXc0WwUOy52vl9C2-274">
          <mxGeometry x="900" width="60" height="40" as="geometry" />
        </mxCell>
        <mxCell id="9qrIkXc0WwUOy52vl9C2-291" value="" style="shape=partialRectangle;html=1;whiteSpace=wrap;connectable=0;overflow=hidden;fillColor=none;top=0;left=0;bottom=0;right=0;" vertex="1" parent="9qrIkXc0WwUOy52vl9C2-274">
          <mxGeometry x="960" width="60" height="40" as="geometry" />
        </mxCell>
        <mxCell id="9qrIkXc0WwUOy52vl9C2-292" value="" style="shape=partialRectangle;html=1;whiteSpace=wrap;connectable=0;overflow=hidden;fillColor=none;top=0;left=0;bottom=0;right=0;" vertex="1" parent="9qrIkXc0WwUOy52vl9C2-274">
          <mxGeometry x="1020" width="60" height="40" as="geometry" />
        </mxCell>
        <mxCell id="9qrIkXc0WwUOy52vl9C2-293" value="" style="shape=partialRectangle;html=1;whiteSpace=wrap;connectable=0;overflow=hidden;fillColor=none;top=0;left=0;bottom=0;right=0;" vertex="1" parent="9qrIkXc0WwUOy52vl9C2-274">
          <mxGeometry x="1080" width="60" height="40" as="geometry" />
        </mxCell>
        <mxCell id="9qrIkXc0WwUOy52vl9C2-294" value="" style="shape=partialRectangle;html=1;whiteSpace=wrap;connectable=0;overflow=hidden;fillColor=none;top=0;left=0;bottom=0;right=0;" vertex="1" parent="9qrIkXc0WwUOy52vl9C2-274">
          <mxGeometry x="1140" width="60" height="40" as="geometry" />
        </mxCell>
        <mxCell id="9qrIkXc0WwUOy52vl9C2-295" value="" style="shape=partialRectangle;html=1;whiteSpace=wrap;collapsible=0;dropTarget=0;pointerEvents=0;fillColor=none;top=0;left=0;bottom=0;right=0;points=[[0,0.5],[1,0.5]];portConstraint=eastwest;" vertex="1" parent="9qrIkXc0WwUOy52vl9C2-0">
          <mxGeometry y="560" width="1200" height="40" as="geometry" />
        </mxCell>
        <mxCell id="9qrIkXc0WwUOy52vl9C2-296" value="" style="shape=partialRectangle;html=1;whiteSpace=wrap;connectable=0;overflow=hidden;fillColor=none;top=0;left=0;bottom=0;right=0;" vertex="1" parent="9qrIkXc0WwUOy52vl9C2-295">
          <mxGeometry width="60" height="40" as="geometry" />
        </mxCell>
        <mxCell id="9qrIkXc0WwUOy52vl9C2-297" value="" style="shape=partialRectangle;html=1;whiteSpace=wrap;connectable=0;overflow=hidden;fillColor=none;top=0;left=0;bottom=0;right=0;" vertex="1" parent="9qrIkXc0WwUOy52vl9C2-295">
          <mxGeometry x="60" width="60" height="40" as="geometry" />
        </mxCell>
        <mxCell id="9qrIkXc0WwUOy52vl9C2-298" value="" style="shape=partialRectangle;html=1;whiteSpace=wrap;connectable=0;overflow=hidden;fillColor=none;top=0;left=0;bottom=0;right=0;" vertex="1" parent="9qrIkXc0WwUOy52vl9C2-295">
          <mxGeometry x="120" width="60" height="40" as="geometry" />
        </mxCell>
        <mxCell id="9qrIkXc0WwUOy52vl9C2-299" value="" style="shape=partialRectangle;html=1;whiteSpace=wrap;connectable=0;overflow=hidden;fillColor=none;top=0;left=0;bottom=0;right=0;" vertex="1" parent="9qrIkXc0WwUOy52vl9C2-295">
          <mxGeometry x="180" width="60" height="40" as="geometry" />
        </mxCell>
        <mxCell id="9qrIkXc0WwUOy52vl9C2-300" value="" style="shape=partialRectangle;html=1;whiteSpace=wrap;connectable=0;overflow=hidden;fillColor=none;top=0;left=0;bottom=0;right=0;" vertex="1" parent="9qrIkXc0WwUOy52vl9C2-295">
          <mxGeometry x="240" width="60" height="40" as="geometry" />
        </mxCell>
        <mxCell id="9qrIkXc0WwUOy52vl9C2-301" value="" style="shape=partialRectangle;html=1;whiteSpace=wrap;connectable=0;overflow=hidden;fillColor=none;top=0;left=0;bottom=0;right=0;" vertex="1" parent="9qrIkXc0WwUOy52vl9C2-295">
          <mxGeometry x="300" width="60" height="40" as="geometry" />
        </mxCell>
        <mxCell id="9qrIkXc0WwUOy52vl9C2-302" value="" style="shape=partialRectangle;html=1;whiteSpace=wrap;connectable=0;overflow=hidden;fillColor=none;top=0;left=0;bottom=0;right=0;" vertex="1" parent="9qrIkXc0WwUOy52vl9C2-295">
          <mxGeometry x="360" width="60" height="40" as="geometry" />
        </mxCell>
        <mxCell id="9qrIkXc0WwUOy52vl9C2-303" value="" style="shape=partialRectangle;html=1;whiteSpace=wrap;connectable=0;overflow=hidden;fillColor=none;top=0;left=0;bottom=0;right=0;" vertex="1" parent="9qrIkXc0WwUOy52vl9C2-295">
          <mxGeometry x="420" width="60" height="40" as="geometry" />
        </mxCell>
        <mxCell id="9qrIkXc0WwUOy52vl9C2-304" value="" style="shape=partialRectangle;html=1;whiteSpace=wrap;connectable=0;overflow=hidden;fillColor=none;top=0;left=0;bottom=0;right=0;" vertex="1" parent="9qrIkXc0WwUOy52vl9C2-295">
          <mxGeometry x="480" width="60" height="40" as="geometry" />
        </mxCell>
        <mxCell id="9qrIkXc0WwUOy52vl9C2-305" value="" style="shape=partialRectangle;html=1;whiteSpace=wrap;connectable=0;overflow=hidden;fillColor=none;top=0;left=0;bottom=0;right=0;" vertex="1" parent="9qrIkXc0WwUOy52vl9C2-295">
          <mxGeometry x="540" width="60" height="40" as="geometry" />
        </mxCell>
        <mxCell id="9qrIkXc0WwUOy52vl9C2-306" value="" style="shape=partialRectangle;html=1;whiteSpace=wrap;connectable=0;overflow=hidden;fillColor=none;top=0;left=0;bottom=0;right=0;" vertex="1" parent="9qrIkXc0WwUOy52vl9C2-295">
          <mxGeometry x="600" width="60" height="40" as="geometry" />
        </mxCell>
        <mxCell id="9qrIkXc0WwUOy52vl9C2-307" value="" style="shape=partialRectangle;html=1;whiteSpace=wrap;connectable=0;overflow=hidden;fillColor=none;top=0;left=0;bottom=0;right=0;" vertex="1" parent="9qrIkXc0WwUOy52vl9C2-295">
          <mxGeometry x="660" width="60" height="40" as="geometry" />
        </mxCell>
        <mxCell id="9qrIkXc0WwUOy52vl9C2-308" value="" style="shape=partialRectangle;html=1;whiteSpace=wrap;connectable=0;overflow=hidden;fillColor=none;top=0;left=0;bottom=0;right=0;" vertex="1" parent="9qrIkXc0WwUOy52vl9C2-295">
          <mxGeometry x="720" width="60" height="40" as="geometry" />
        </mxCell>
        <mxCell id="9qrIkXc0WwUOy52vl9C2-309" value="" style="shape=partialRectangle;html=1;whiteSpace=wrap;connectable=0;overflow=hidden;fillColor=none;top=0;left=0;bottom=0;right=0;" vertex="1" parent="9qrIkXc0WwUOy52vl9C2-295">
          <mxGeometry x="780" width="60" height="40" as="geometry" />
        </mxCell>
        <mxCell id="9qrIkXc0WwUOy52vl9C2-310" value="" style="shape=partialRectangle;html=1;whiteSpace=wrap;connectable=0;overflow=hidden;fillColor=none;top=0;left=0;bottom=0;right=0;" vertex="1" parent="9qrIkXc0WwUOy52vl9C2-295">
          <mxGeometry x="840" width="60" height="40" as="geometry" />
        </mxCell>
        <mxCell id="9qrIkXc0WwUOy52vl9C2-311" value="" style="shape=partialRectangle;html=1;whiteSpace=wrap;connectable=0;overflow=hidden;fillColor=none;top=0;left=0;bottom=0;right=0;" vertex="1" parent="9qrIkXc0WwUOy52vl9C2-295">
          <mxGeometry x="900" width="60" height="40" as="geometry" />
        </mxCell>
        <mxCell id="9qrIkXc0WwUOy52vl9C2-312" value="" style="shape=partialRectangle;html=1;whiteSpace=wrap;connectable=0;overflow=hidden;fillColor=none;top=0;left=0;bottom=0;right=0;" vertex="1" parent="9qrIkXc0WwUOy52vl9C2-295">
          <mxGeometry x="960" width="60" height="40" as="geometry" />
        </mxCell>
        <mxCell id="9qrIkXc0WwUOy52vl9C2-313" value="" style="shape=partialRectangle;html=1;whiteSpace=wrap;connectable=0;overflow=hidden;fillColor=none;top=0;left=0;bottom=0;right=0;" vertex="1" parent="9qrIkXc0WwUOy52vl9C2-295">
          <mxGeometry x="1020" width="60" height="40" as="geometry" />
        </mxCell>
        <mxCell id="9qrIkXc0WwUOy52vl9C2-314" value="" style="shape=partialRectangle;html=1;whiteSpace=wrap;connectable=0;overflow=hidden;fillColor=none;top=0;left=0;bottom=0;right=0;" vertex="1" parent="9qrIkXc0WwUOy52vl9C2-295">
          <mxGeometry x="1080" width="60" height="40" as="geometry" />
        </mxCell>
        <mxCell id="9qrIkXc0WwUOy52vl9C2-315" value="" style="shape=partialRectangle;html=1;whiteSpace=wrap;connectable=0;overflow=hidden;fillColor=none;top=0;left=0;bottom=0;right=0;" vertex="1" parent="9qrIkXc0WwUOy52vl9C2-295">
          <mxGeometry x="1140" width="60" height="40" as="geometry" />
        </mxCell>
        <mxCell id="9qrIkXc0WwUOy52vl9C2-316" value="" style="shape=partialRectangle;html=1;whiteSpace=wrap;collapsible=0;dropTarget=0;pointerEvents=0;fillColor=none;top=0;left=0;bottom=0;right=0;points=[[0,0.5],[1,0.5]];portConstraint=eastwest;" vertex="1" parent="9qrIkXc0WwUOy52vl9C2-0">
          <mxGeometry y="600" width="1200" height="40" as="geometry" />
        </mxCell>
        <mxCell id="9qrIkXc0WwUOy52vl9C2-317" value="" style="shape=partialRectangle;html=1;whiteSpace=wrap;connectable=0;overflow=hidden;fillColor=none;top=0;left=0;bottom=0;right=0;" vertex="1" parent="9qrIkXc0WwUOy52vl9C2-316">
          <mxGeometry width="60" height="40" as="geometry" />
        </mxCell>
        <mxCell id="9qrIkXc0WwUOy52vl9C2-318" value="" style="shape=partialRectangle;html=1;whiteSpace=wrap;connectable=0;overflow=hidden;fillColor=none;top=0;left=0;bottom=0;right=0;" vertex="1" parent="9qrIkXc0WwUOy52vl9C2-316">
          <mxGeometry x="60" width="60" height="40" as="geometry" />
        </mxCell>
        <mxCell id="9qrIkXc0WwUOy52vl9C2-319" value="" style="shape=partialRectangle;html=1;whiteSpace=wrap;connectable=0;overflow=hidden;fillColor=none;top=0;left=0;bottom=0;right=0;" vertex="1" parent="9qrIkXc0WwUOy52vl9C2-316">
          <mxGeometry x="120" width="60" height="40" as="geometry" />
        </mxCell>
        <mxCell id="9qrIkXc0WwUOy52vl9C2-320" value="" style="shape=partialRectangle;html=1;whiteSpace=wrap;connectable=0;overflow=hidden;fillColor=none;top=0;left=0;bottom=0;right=0;" vertex="1" parent="9qrIkXc0WwUOy52vl9C2-316">
          <mxGeometry x="180" width="60" height="40" as="geometry" />
        </mxCell>
        <mxCell id="9qrIkXc0WwUOy52vl9C2-321" value="" style="shape=partialRectangle;html=1;whiteSpace=wrap;connectable=0;overflow=hidden;fillColor=none;top=0;left=0;bottom=0;right=0;" vertex="1" parent="9qrIkXc0WwUOy52vl9C2-316">
          <mxGeometry x="240" width="60" height="40" as="geometry" />
        </mxCell>
        <mxCell id="9qrIkXc0WwUOy52vl9C2-322" value="" style="shape=partialRectangle;html=1;whiteSpace=wrap;connectable=0;overflow=hidden;fillColor=none;top=0;left=0;bottom=0;right=0;" vertex="1" parent="9qrIkXc0WwUOy52vl9C2-316">
          <mxGeometry x="300" width="60" height="40" as="geometry" />
        </mxCell>
        <mxCell id="9qrIkXc0WwUOy52vl9C2-323" value="" style="shape=partialRectangle;html=1;whiteSpace=wrap;connectable=0;overflow=hidden;fillColor=none;top=0;left=0;bottom=0;right=0;" vertex="1" parent="9qrIkXc0WwUOy52vl9C2-316">
          <mxGeometry x="360" width="60" height="40" as="geometry" />
        </mxCell>
        <mxCell id="9qrIkXc0WwUOy52vl9C2-324" value="" style="shape=partialRectangle;html=1;whiteSpace=wrap;connectable=0;overflow=hidden;fillColor=none;top=0;left=0;bottom=0;right=0;" vertex="1" parent="9qrIkXc0WwUOy52vl9C2-316">
          <mxGeometry x="420" width="60" height="40" as="geometry" />
        </mxCell>
        <mxCell id="9qrIkXc0WwUOy52vl9C2-325" value="" style="shape=partialRectangle;html=1;whiteSpace=wrap;connectable=0;overflow=hidden;fillColor=none;top=0;left=0;bottom=0;right=0;" vertex="1" parent="9qrIkXc0WwUOy52vl9C2-316">
          <mxGeometry x="480" width="60" height="40" as="geometry" />
        </mxCell>
        <mxCell id="9qrIkXc0WwUOy52vl9C2-326" value="" style="shape=partialRectangle;html=1;whiteSpace=wrap;connectable=0;overflow=hidden;fillColor=none;top=0;left=0;bottom=0;right=0;" vertex="1" parent="9qrIkXc0WwUOy52vl9C2-316">
          <mxGeometry x="540" width="60" height="40" as="geometry" />
        </mxCell>
        <mxCell id="9qrIkXc0WwUOy52vl9C2-327" value="" style="shape=partialRectangle;html=1;whiteSpace=wrap;connectable=0;overflow=hidden;fillColor=none;top=0;left=0;bottom=0;right=0;" vertex="1" parent="9qrIkXc0WwUOy52vl9C2-316">
          <mxGeometry x="600" width="60" height="40" as="geometry" />
        </mxCell>
        <mxCell id="9qrIkXc0WwUOy52vl9C2-328" value="" style="shape=partialRectangle;html=1;whiteSpace=wrap;connectable=0;overflow=hidden;fillColor=none;top=0;left=0;bottom=0;right=0;" vertex="1" parent="9qrIkXc0WwUOy52vl9C2-316">
          <mxGeometry x="660" width="60" height="40" as="geometry" />
        </mxCell>
        <mxCell id="9qrIkXc0WwUOy52vl9C2-329" value="" style="shape=partialRectangle;html=1;whiteSpace=wrap;connectable=0;overflow=hidden;fillColor=none;top=0;left=0;bottom=0;right=0;" vertex="1" parent="9qrIkXc0WwUOy52vl9C2-316">
          <mxGeometry x="720" width="60" height="40" as="geometry" />
        </mxCell>
        <mxCell id="9qrIkXc0WwUOy52vl9C2-330" value="" style="shape=partialRectangle;html=1;whiteSpace=wrap;connectable=0;overflow=hidden;fillColor=none;top=0;left=0;bottom=0;right=0;" vertex="1" parent="9qrIkXc0WwUOy52vl9C2-316">
          <mxGeometry x="780" width="60" height="40" as="geometry" />
        </mxCell>
        <mxCell id="9qrIkXc0WwUOy52vl9C2-331" value="" style="shape=partialRectangle;html=1;whiteSpace=wrap;connectable=0;overflow=hidden;fillColor=none;top=0;left=0;bottom=0;right=0;" vertex="1" parent="9qrIkXc0WwUOy52vl9C2-316">
          <mxGeometry x="840" width="60" height="40" as="geometry" />
        </mxCell>
        <mxCell id="9qrIkXc0WwUOy52vl9C2-332" value="" style="shape=partialRectangle;html=1;whiteSpace=wrap;connectable=0;overflow=hidden;fillColor=none;top=0;left=0;bottom=0;right=0;" vertex="1" parent="9qrIkXc0WwUOy52vl9C2-316">
          <mxGeometry x="900" width="60" height="40" as="geometry" />
        </mxCell>
        <mxCell id="9qrIkXc0WwUOy52vl9C2-333" value="" style="shape=partialRectangle;html=1;whiteSpace=wrap;connectable=0;overflow=hidden;fillColor=none;top=0;left=0;bottom=0;right=0;" vertex="1" parent="9qrIkXc0WwUOy52vl9C2-316">
          <mxGeometry x="960" width="60" height="40" as="geometry" />
        </mxCell>
        <mxCell id="9qrIkXc0WwUOy52vl9C2-334" value="" style="shape=partialRectangle;html=1;whiteSpace=wrap;connectable=0;overflow=hidden;fillColor=none;top=0;left=0;bottom=0;right=0;" vertex="1" parent="9qrIkXc0WwUOy52vl9C2-316">
          <mxGeometry x="1020" width="60" height="40" as="geometry" />
        </mxCell>
        <mxCell id="9qrIkXc0WwUOy52vl9C2-335" value="" style="shape=partialRectangle;html=1;whiteSpace=wrap;connectable=0;overflow=hidden;fillColor=none;top=0;left=0;bottom=0;right=0;" vertex="1" parent="9qrIkXc0WwUOy52vl9C2-316">
          <mxGeometry x="1080" width="60" height="40" as="geometry" />
        </mxCell>
        <mxCell id="9qrIkXc0WwUOy52vl9C2-336" value="" style="shape=partialRectangle;html=1;whiteSpace=wrap;connectable=0;overflow=hidden;fillColor=none;top=0;left=0;bottom=0;right=0;" vertex="1" parent="9qrIkXc0WwUOy52vl9C2-316">
          <mxGeometry x="1140" width="60" height="40" as="geometry" />
        </mxCell>
        <mxCell id="9qrIkXc0WwUOy52vl9C2-337" value="" style="shape=partialRectangle;html=1;whiteSpace=wrap;collapsible=0;dropTarget=0;pointerEvents=0;fillColor=none;top=0;left=0;bottom=0;right=0;points=[[0,0.5],[1,0.5]];portConstraint=eastwest;" vertex="1" parent="9qrIkXc0WwUOy52vl9C2-0">
          <mxGeometry y="640" width="1200" height="40" as="geometry" />
        </mxCell>
        <mxCell id="9qrIkXc0WwUOy52vl9C2-338" value="" style="shape=partialRectangle;html=1;whiteSpace=wrap;connectable=0;overflow=hidden;fillColor=none;top=0;left=0;bottom=0;right=0;" vertex="1" parent="9qrIkXc0WwUOy52vl9C2-337">
          <mxGeometry width="60" height="40" as="geometry" />
        </mxCell>
        <mxCell id="9qrIkXc0WwUOy52vl9C2-339" value="" style="shape=partialRectangle;html=1;whiteSpace=wrap;connectable=0;overflow=hidden;fillColor=none;top=0;left=0;bottom=0;right=0;" vertex="1" parent="9qrIkXc0WwUOy52vl9C2-337">
          <mxGeometry x="60" width="60" height="40" as="geometry" />
        </mxCell>
        <mxCell id="9qrIkXc0WwUOy52vl9C2-340" value="" style="shape=partialRectangle;html=1;whiteSpace=wrap;connectable=0;overflow=hidden;fillColor=none;top=0;left=0;bottom=0;right=0;" vertex="1" parent="9qrIkXc0WwUOy52vl9C2-337">
          <mxGeometry x="120" width="60" height="40" as="geometry" />
        </mxCell>
        <mxCell id="9qrIkXc0WwUOy52vl9C2-341" value="" style="shape=partialRectangle;html=1;whiteSpace=wrap;connectable=0;overflow=hidden;fillColor=none;top=0;left=0;bottom=0;right=0;" vertex="1" parent="9qrIkXc0WwUOy52vl9C2-337">
          <mxGeometry x="180" width="60" height="40" as="geometry" />
        </mxCell>
        <mxCell id="9qrIkXc0WwUOy52vl9C2-342" value="" style="shape=partialRectangle;html=1;whiteSpace=wrap;connectable=0;overflow=hidden;fillColor=none;top=0;left=0;bottom=0;right=0;" vertex="1" parent="9qrIkXc0WwUOy52vl9C2-337">
          <mxGeometry x="240" width="60" height="40" as="geometry" />
        </mxCell>
        <mxCell id="9qrIkXc0WwUOy52vl9C2-343" value="" style="shape=partialRectangle;html=1;whiteSpace=wrap;connectable=0;overflow=hidden;fillColor=none;top=0;left=0;bottom=0;right=0;" vertex="1" parent="9qrIkXc0WwUOy52vl9C2-337">
          <mxGeometry x="300" width="60" height="40" as="geometry" />
        </mxCell>
        <mxCell id="9qrIkXc0WwUOy52vl9C2-344" value="" style="shape=partialRectangle;html=1;whiteSpace=wrap;connectable=0;overflow=hidden;fillColor=none;top=0;left=0;bottom=0;right=0;" vertex="1" parent="9qrIkXc0WwUOy52vl9C2-337">
          <mxGeometry x="360" width="60" height="40" as="geometry" />
        </mxCell>
        <mxCell id="9qrIkXc0WwUOy52vl9C2-345" value="" style="shape=partialRectangle;html=1;whiteSpace=wrap;connectable=0;overflow=hidden;fillColor=none;top=0;left=0;bottom=0;right=0;" vertex="1" parent="9qrIkXc0WwUOy52vl9C2-337">
          <mxGeometry x="420" width="60" height="40" as="geometry" />
        </mxCell>
        <mxCell id="9qrIkXc0WwUOy52vl9C2-346" value="" style="shape=partialRectangle;html=1;whiteSpace=wrap;connectable=0;overflow=hidden;fillColor=none;top=0;left=0;bottom=0;right=0;" vertex="1" parent="9qrIkXc0WwUOy52vl9C2-337">
          <mxGeometry x="480" width="60" height="40" as="geometry" />
        </mxCell>
        <mxCell id="9qrIkXc0WwUOy52vl9C2-347" value="" style="shape=partialRectangle;html=1;whiteSpace=wrap;connectable=0;overflow=hidden;fillColor=none;top=0;left=0;bottom=0;right=0;" vertex="1" parent="9qrIkXc0WwUOy52vl9C2-337">
          <mxGeometry x="540" width="60" height="40" as="geometry" />
        </mxCell>
        <mxCell id="9qrIkXc0WwUOy52vl9C2-348" value="" style="shape=partialRectangle;html=1;whiteSpace=wrap;connectable=0;overflow=hidden;fillColor=none;top=0;left=0;bottom=0;right=0;" vertex="1" parent="9qrIkXc0WwUOy52vl9C2-337">
          <mxGeometry x="600" width="60" height="40" as="geometry" />
        </mxCell>
        <mxCell id="9qrIkXc0WwUOy52vl9C2-349" value="" style="shape=partialRectangle;html=1;whiteSpace=wrap;connectable=0;overflow=hidden;fillColor=none;top=0;left=0;bottom=0;right=0;" vertex="1" parent="9qrIkXc0WwUOy52vl9C2-337">
          <mxGeometry x="660" width="60" height="40" as="geometry" />
        </mxCell>
        <mxCell id="9qrIkXc0WwUOy52vl9C2-350" value="" style="shape=partialRectangle;html=1;whiteSpace=wrap;connectable=0;overflow=hidden;fillColor=none;top=0;left=0;bottom=0;right=0;" vertex="1" parent="9qrIkXc0WwUOy52vl9C2-337">
          <mxGeometry x="720" width="60" height="40" as="geometry" />
        </mxCell>
        <mxCell id="9qrIkXc0WwUOy52vl9C2-351" value="" style="shape=partialRectangle;html=1;whiteSpace=wrap;connectable=0;overflow=hidden;fillColor=none;top=0;left=0;bottom=0;right=0;" vertex="1" parent="9qrIkXc0WwUOy52vl9C2-337">
          <mxGeometry x="780" width="60" height="40" as="geometry" />
        </mxCell>
        <mxCell id="9qrIkXc0WwUOy52vl9C2-352" value="" style="shape=partialRectangle;html=1;whiteSpace=wrap;connectable=0;overflow=hidden;fillColor=none;top=0;left=0;bottom=0;right=0;" vertex="1" parent="9qrIkXc0WwUOy52vl9C2-337">
          <mxGeometry x="840" width="60" height="40" as="geometry" />
        </mxCell>
        <mxCell id="9qrIkXc0WwUOy52vl9C2-353" value="" style="shape=partialRectangle;html=1;whiteSpace=wrap;connectable=0;overflow=hidden;fillColor=none;top=0;left=0;bottom=0;right=0;" vertex="1" parent="9qrIkXc0WwUOy52vl9C2-337">
          <mxGeometry x="900" width="60" height="40" as="geometry" />
        </mxCell>
        <mxCell id="9qrIkXc0WwUOy52vl9C2-354" value="" style="shape=partialRectangle;html=1;whiteSpace=wrap;connectable=0;overflow=hidden;fillColor=none;top=0;left=0;bottom=0;right=0;" vertex="1" parent="9qrIkXc0WwUOy52vl9C2-337">
          <mxGeometry x="960" width="60" height="40" as="geometry" />
        </mxCell>
        <mxCell id="9qrIkXc0WwUOy52vl9C2-355" value="" style="shape=partialRectangle;html=1;whiteSpace=wrap;connectable=0;overflow=hidden;fillColor=none;top=0;left=0;bottom=0;right=0;" vertex="1" parent="9qrIkXc0WwUOy52vl9C2-337">
          <mxGeometry x="1020" width="60" height="40" as="geometry" />
        </mxCell>
        <mxCell id="9qrIkXc0WwUOy52vl9C2-356" value="" style="shape=partialRectangle;html=1;whiteSpace=wrap;connectable=0;overflow=hidden;fillColor=none;top=0;left=0;bottom=0;right=0;" vertex="1" parent="9qrIkXc0WwUOy52vl9C2-337">
          <mxGeometry x="1080" width="60" height="40" as="geometry" />
        </mxCell>
        <mxCell id="9qrIkXc0WwUOy52vl9C2-357" value="" style="shape=partialRectangle;html=1;whiteSpace=wrap;connectable=0;overflow=hidden;fillColor=none;top=0;left=0;bottom=0;right=0;" vertex="1" parent="9qrIkXc0WwUOy52vl9C2-337">
          <mxGeometry x="1140" width="60" height="40" as="geometry" />
        </mxCell>
        <mxCell id="9qrIkXc0WwUOy52vl9C2-358" value="" style="shape=partialRectangle;html=1;whiteSpace=wrap;collapsible=0;dropTarget=0;pointerEvents=0;fillColor=none;top=0;left=0;bottom=0;right=0;points=[[0,0.5],[1,0.5]];portConstraint=eastwest;" vertex="1" parent="9qrIkXc0WwUOy52vl9C2-0">
          <mxGeometry y="680" width="1200" height="40" as="geometry" />
        </mxCell>
        <mxCell id="9qrIkXc0WwUOy52vl9C2-359" value="" style="shape=partialRectangle;html=1;whiteSpace=wrap;connectable=0;overflow=hidden;fillColor=none;top=0;left=0;bottom=0;right=0;" vertex="1" parent="9qrIkXc0WwUOy52vl9C2-358">
          <mxGeometry width="60" height="40" as="geometry" />
        </mxCell>
        <mxCell id="9qrIkXc0WwUOy52vl9C2-360" value="" style="shape=partialRectangle;html=1;whiteSpace=wrap;connectable=0;overflow=hidden;fillColor=none;top=0;left=0;bottom=0;right=0;" vertex="1" parent="9qrIkXc0WwUOy52vl9C2-358">
          <mxGeometry x="60" width="60" height="40" as="geometry" />
        </mxCell>
        <mxCell id="9qrIkXc0WwUOy52vl9C2-361" value="" style="shape=partialRectangle;html=1;whiteSpace=wrap;connectable=0;overflow=hidden;fillColor=none;top=0;left=0;bottom=0;right=0;" vertex="1" parent="9qrIkXc0WwUOy52vl9C2-358">
          <mxGeometry x="120" width="60" height="40" as="geometry" />
        </mxCell>
        <mxCell id="9qrIkXc0WwUOy52vl9C2-362" value="" style="shape=partialRectangle;html=1;whiteSpace=wrap;connectable=0;overflow=hidden;fillColor=none;top=0;left=0;bottom=0;right=0;" vertex="1" parent="9qrIkXc0WwUOy52vl9C2-358">
          <mxGeometry x="180" width="60" height="40" as="geometry" />
        </mxCell>
        <mxCell id="9qrIkXc0WwUOy52vl9C2-363" value="" style="shape=partialRectangle;html=1;whiteSpace=wrap;connectable=0;overflow=hidden;fillColor=none;top=0;left=0;bottom=0;right=0;" vertex="1" parent="9qrIkXc0WwUOy52vl9C2-358">
          <mxGeometry x="240" width="60" height="40" as="geometry" />
        </mxCell>
        <mxCell id="9qrIkXc0WwUOy52vl9C2-364" value="" style="shape=partialRectangle;html=1;whiteSpace=wrap;connectable=0;overflow=hidden;fillColor=none;top=0;left=0;bottom=0;right=0;" vertex="1" parent="9qrIkXc0WwUOy52vl9C2-358">
          <mxGeometry x="300" width="60" height="40" as="geometry" />
        </mxCell>
        <mxCell id="9qrIkXc0WwUOy52vl9C2-365" value="" style="shape=partialRectangle;html=1;whiteSpace=wrap;connectable=0;overflow=hidden;fillColor=none;top=0;left=0;bottom=0;right=0;" vertex="1" parent="9qrIkXc0WwUOy52vl9C2-358">
          <mxGeometry x="360" width="60" height="40" as="geometry" />
        </mxCell>
        <mxCell id="9qrIkXc0WwUOy52vl9C2-366" value="" style="shape=partialRectangle;html=1;whiteSpace=wrap;connectable=0;overflow=hidden;fillColor=none;top=0;left=0;bottom=0;right=0;" vertex="1" parent="9qrIkXc0WwUOy52vl9C2-358">
          <mxGeometry x="420" width="60" height="40" as="geometry" />
        </mxCell>
        <mxCell id="9qrIkXc0WwUOy52vl9C2-367" value="" style="shape=partialRectangle;html=1;whiteSpace=wrap;connectable=0;overflow=hidden;fillColor=none;top=0;left=0;bottom=0;right=0;" vertex="1" parent="9qrIkXc0WwUOy52vl9C2-358">
          <mxGeometry x="480" width="60" height="40" as="geometry" />
        </mxCell>
        <mxCell id="9qrIkXc0WwUOy52vl9C2-368" value="" style="shape=partialRectangle;html=1;whiteSpace=wrap;connectable=0;overflow=hidden;fillColor=none;top=0;left=0;bottom=0;right=0;" vertex="1" parent="9qrIkXc0WwUOy52vl9C2-358">
          <mxGeometry x="540" width="60" height="40" as="geometry" />
        </mxCell>
        <mxCell id="9qrIkXc0WwUOy52vl9C2-369" value="" style="shape=partialRectangle;html=1;whiteSpace=wrap;connectable=0;overflow=hidden;fillColor=none;top=0;left=0;bottom=0;right=0;" vertex="1" parent="9qrIkXc0WwUOy52vl9C2-358">
          <mxGeometry x="600" width="60" height="40" as="geometry" />
        </mxCell>
        <mxCell id="9qrIkXc0WwUOy52vl9C2-370" value="" style="shape=partialRectangle;html=1;whiteSpace=wrap;connectable=0;overflow=hidden;fillColor=none;top=0;left=0;bottom=0;right=0;" vertex="1" parent="9qrIkXc0WwUOy52vl9C2-358">
          <mxGeometry x="660" width="60" height="40" as="geometry" />
        </mxCell>
        <mxCell id="9qrIkXc0WwUOy52vl9C2-371" value="" style="shape=partialRectangle;html=1;whiteSpace=wrap;connectable=0;overflow=hidden;fillColor=none;top=0;left=0;bottom=0;right=0;" vertex="1" parent="9qrIkXc0WwUOy52vl9C2-358">
          <mxGeometry x="720" width="60" height="40" as="geometry" />
        </mxCell>
        <mxCell id="9qrIkXc0WwUOy52vl9C2-372" value="" style="shape=partialRectangle;html=1;whiteSpace=wrap;connectable=0;overflow=hidden;fillColor=none;top=0;left=0;bottom=0;right=0;" vertex="1" parent="9qrIkXc0WwUOy52vl9C2-358">
          <mxGeometry x="780" width="60" height="40" as="geometry" />
        </mxCell>
        <mxCell id="9qrIkXc0WwUOy52vl9C2-373" value="" style="shape=partialRectangle;html=1;whiteSpace=wrap;connectable=0;overflow=hidden;fillColor=none;top=0;left=0;bottom=0;right=0;" vertex="1" parent="9qrIkXc0WwUOy52vl9C2-358">
          <mxGeometry x="840" width="60" height="40" as="geometry" />
        </mxCell>
        <mxCell id="9qrIkXc0WwUOy52vl9C2-374" value="" style="shape=partialRectangle;html=1;whiteSpace=wrap;connectable=0;overflow=hidden;fillColor=none;top=0;left=0;bottom=0;right=0;" vertex="1" parent="9qrIkXc0WwUOy52vl9C2-358">
          <mxGeometry x="900" width="60" height="40" as="geometry" />
        </mxCell>
        <mxCell id="9qrIkXc0WwUOy52vl9C2-375" value="" style="shape=partialRectangle;html=1;whiteSpace=wrap;connectable=0;overflow=hidden;fillColor=none;top=0;left=0;bottom=0;right=0;" vertex="1" parent="9qrIkXc0WwUOy52vl9C2-358">
          <mxGeometry x="960" width="60" height="40" as="geometry" />
        </mxCell>
        <mxCell id="9qrIkXc0WwUOy52vl9C2-376" value="" style="shape=partialRectangle;html=1;whiteSpace=wrap;connectable=0;overflow=hidden;fillColor=none;top=0;left=0;bottom=0;right=0;" vertex="1" parent="9qrIkXc0WwUOy52vl9C2-358">
          <mxGeometry x="1020" width="60" height="40" as="geometry" />
        </mxCell>
        <mxCell id="9qrIkXc0WwUOy52vl9C2-377" value="" style="shape=partialRectangle;html=1;whiteSpace=wrap;connectable=0;overflow=hidden;fillColor=none;top=0;left=0;bottom=0;right=0;" vertex="1" parent="9qrIkXc0WwUOy52vl9C2-358">
          <mxGeometry x="1080" width="60" height="40" as="geometry" />
        </mxCell>
        <mxCell id="9qrIkXc0WwUOy52vl9C2-378" value="" style="shape=partialRectangle;html=1;whiteSpace=wrap;connectable=0;overflow=hidden;fillColor=none;top=0;left=0;bottom=0;right=0;" vertex="1" parent="9qrIkXc0WwUOy52vl9C2-358">
          <mxGeometry x="1140" width="60" height="40" as="geometry" />
        </mxCell>
        <mxCell id="9qrIkXc0WwUOy52vl9C2-379" value="" style="shape=partialRectangle;html=1;whiteSpace=wrap;collapsible=0;dropTarget=0;pointerEvents=0;fillColor=none;top=0;left=0;bottom=0;right=0;points=[[0,0.5],[1,0.5]];portConstraint=eastwest;" vertex="1" parent="9qrIkXc0WwUOy52vl9C2-0">
          <mxGeometry y="720" width="1200" height="40" as="geometry" />
        </mxCell>
        <mxCell id="9qrIkXc0WwUOy52vl9C2-380" value="" style="shape=partialRectangle;html=1;whiteSpace=wrap;connectable=0;overflow=hidden;fillColor=none;top=0;left=0;bottom=0;right=0;" vertex="1" parent="9qrIkXc0WwUOy52vl9C2-379">
          <mxGeometry width="60" height="40" as="geometry" />
        </mxCell>
        <mxCell id="9qrIkXc0WwUOy52vl9C2-381" value="" style="shape=partialRectangle;html=1;whiteSpace=wrap;connectable=0;overflow=hidden;fillColor=none;top=0;left=0;bottom=0;right=0;" vertex="1" parent="9qrIkXc0WwUOy52vl9C2-379">
          <mxGeometry x="60" width="60" height="40" as="geometry" />
        </mxCell>
        <mxCell id="9qrIkXc0WwUOy52vl9C2-382" value="" style="shape=partialRectangle;html=1;whiteSpace=wrap;connectable=0;overflow=hidden;fillColor=none;top=0;left=0;bottom=0;right=0;" vertex="1" parent="9qrIkXc0WwUOy52vl9C2-379">
          <mxGeometry x="120" width="60" height="40" as="geometry" />
        </mxCell>
        <mxCell id="9qrIkXc0WwUOy52vl9C2-383" value="" style="shape=partialRectangle;html=1;whiteSpace=wrap;connectable=0;overflow=hidden;fillColor=none;top=0;left=0;bottom=0;right=0;" vertex="1" parent="9qrIkXc0WwUOy52vl9C2-379">
          <mxGeometry x="180" width="60" height="40" as="geometry" />
        </mxCell>
        <mxCell id="9qrIkXc0WwUOy52vl9C2-384" value="" style="shape=partialRectangle;html=1;whiteSpace=wrap;connectable=0;overflow=hidden;fillColor=none;top=0;left=0;bottom=0;right=0;" vertex="1" parent="9qrIkXc0WwUOy52vl9C2-379">
          <mxGeometry x="240" width="60" height="40" as="geometry" />
        </mxCell>
        <mxCell id="9qrIkXc0WwUOy52vl9C2-385" value="" style="shape=partialRectangle;html=1;whiteSpace=wrap;connectable=0;overflow=hidden;fillColor=none;top=0;left=0;bottom=0;right=0;" vertex="1" parent="9qrIkXc0WwUOy52vl9C2-379">
          <mxGeometry x="300" width="60" height="40" as="geometry" />
        </mxCell>
        <mxCell id="9qrIkXc0WwUOy52vl9C2-386" value="" style="shape=partialRectangle;html=1;whiteSpace=wrap;connectable=0;overflow=hidden;fillColor=none;top=0;left=0;bottom=0;right=0;" vertex="1" parent="9qrIkXc0WwUOy52vl9C2-379">
          <mxGeometry x="360" width="60" height="40" as="geometry" />
        </mxCell>
        <mxCell id="9qrIkXc0WwUOy52vl9C2-387" value="" style="shape=partialRectangle;html=1;whiteSpace=wrap;connectable=0;overflow=hidden;fillColor=none;top=0;left=0;bottom=0;right=0;" vertex="1" parent="9qrIkXc0WwUOy52vl9C2-379">
          <mxGeometry x="420" width="60" height="40" as="geometry" />
        </mxCell>
        <mxCell id="9qrIkXc0WwUOy52vl9C2-388" value="" style="shape=partialRectangle;html=1;whiteSpace=wrap;connectable=0;overflow=hidden;fillColor=none;top=0;left=0;bottom=0;right=0;" vertex="1" parent="9qrIkXc0WwUOy52vl9C2-379">
          <mxGeometry x="480" width="60" height="40" as="geometry" />
        </mxCell>
        <mxCell id="9qrIkXc0WwUOy52vl9C2-389" value="" style="shape=partialRectangle;html=1;whiteSpace=wrap;connectable=0;overflow=hidden;fillColor=none;top=0;left=0;bottom=0;right=0;" vertex="1" parent="9qrIkXc0WwUOy52vl9C2-379">
          <mxGeometry x="540" width="60" height="40" as="geometry" />
        </mxCell>
        <mxCell id="9qrIkXc0WwUOy52vl9C2-390" value="" style="shape=partialRectangle;html=1;whiteSpace=wrap;connectable=0;overflow=hidden;fillColor=none;top=0;left=0;bottom=0;right=0;" vertex="1" parent="9qrIkXc0WwUOy52vl9C2-379">
          <mxGeometry x="600" width="60" height="40" as="geometry" />
        </mxCell>
        <mxCell id="9qrIkXc0WwUOy52vl9C2-391" value="" style="shape=partialRectangle;html=1;whiteSpace=wrap;connectable=0;overflow=hidden;fillColor=none;top=0;left=0;bottom=0;right=0;" vertex="1" parent="9qrIkXc0WwUOy52vl9C2-379">
          <mxGeometry x="660" width="60" height="40" as="geometry" />
        </mxCell>
        <mxCell id="9qrIkXc0WwUOy52vl9C2-392" value="" style="shape=partialRectangle;html=1;whiteSpace=wrap;connectable=0;overflow=hidden;fillColor=none;top=0;left=0;bottom=0;right=0;" vertex="1" parent="9qrIkXc0WwUOy52vl9C2-379">
          <mxGeometry x="720" width="60" height="40" as="geometry" />
        </mxCell>
        <mxCell id="9qrIkXc0WwUOy52vl9C2-393" value="" style="shape=partialRectangle;html=1;whiteSpace=wrap;connectable=0;overflow=hidden;fillColor=none;top=0;left=0;bottom=0;right=0;" vertex="1" parent="9qrIkXc0WwUOy52vl9C2-379">
          <mxGeometry x="780" width="60" height="40" as="geometry" />
        </mxCell>
        <mxCell id="9qrIkXc0WwUOy52vl9C2-394" value="" style="shape=partialRectangle;html=1;whiteSpace=wrap;connectable=0;overflow=hidden;fillColor=none;top=0;left=0;bottom=0;right=0;" vertex="1" parent="9qrIkXc0WwUOy52vl9C2-379">
          <mxGeometry x="840" width="60" height="40" as="geometry" />
        </mxCell>
        <mxCell id="9qrIkXc0WwUOy52vl9C2-395" value="" style="shape=partialRectangle;html=1;whiteSpace=wrap;connectable=0;overflow=hidden;fillColor=none;top=0;left=0;bottom=0;right=0;" vertex="1" parent="9qrIkXc0WwUOy52vl9C2-379">
          <mxGeometry x="900" width="60" height="40" as="geometry" />
        </mxCell>
        <mxCell id="9qrIkXc0WwUOy52vl9C2-396" value="" style="shape=partialRectangle;html=1;whiteSpace=wrap;connectable=0;overflow=hidden;fillColor=none;top=0;left=0;bottom=0;right=0;" vertex="1" parent="9qrIkXc0WwUOy52vl9C2-379">
          <mxGeometry x="960" width="60" height="40" as="geometry" />
        </mxCell>
        <mxCell id="9qrIkXc0WwUOy52vl9C2-397" value="" style="shape=partialRectangle;html=1;whiteSpace=wrap;connectable=0;overflow=hidden;fillColor=none;top=0;left=0;bottom=0;right=0;" vertex="1" parent="9qrIkXc0WwUOy52vl9C2-379">
          <mxGeometry x="1020" width="60" height="40" as="geometry" />
        </mxCell>
        <mxCell id="9qrIkXc0WwUOy52vl9C2-398" value="" style="shape=partialRectangle;html=1;whiteSpace=wrap;connectable=0;overflow=hidden;fillColor=none;top=0;left=0;bottom=0;right=0;" vertex="1" parent="9qrIkXc0WwUOy52vl9C2-379">
          <mxGeometry x="1080" width="60" height="40" as="geometry" />
        </mxCell>
        <mxCell id="9qrIkXc0WwUOy52vl9C2-399" value="" style="shape=partialRectangle;html=1;whiteSpace=wrap;connectable=0;overflow=hidden;fillColor=none;top=0;left=0;bottom=0;right=0;" vertex="1" parent="9qrIkXc0WwUOy52vl9C2-379">
          <mxGeometry x="1140" width="60" height="40" as="geometry" />
        </mxCell>
        <mxCell id="9qrIkXc0WwUOy52vl9C2-400" value="" style="shape=partialRectangle;html=1;whiteSpace=wrap;collapsible=0;dropTarget=0;pointerEvents=0;fillColor=none;top=0;left=0;bottom=0;right=0;points=[[0,0.5],[1,0.5]];portConstraint=eastwest;" vertex="1" parent="9qrIkXc0WwUOy52vl9C2-0">
          <mxGeometry y="760" width="1200" height="40" as="geometry" />
        </mxCell>
        <mxCell id="9qrIkXc0WwUOy52vl9C2-401" value="" style="shape=partialRectangle;html=1;whiteSpace=wrap;connectable=0;overflow=hidden;fillColor=none;top=0;left=0;bottom=0;right=0;" vertex="1" parent="9qrIkXc0WwUOy52vl9C2-400">
          <mxGeometry width="60" height="40" as="geometry" />
        </mxCell>
        <mxCell id="9qrIkXc0WwUOy52vl9C2-402" value="" style="shape=partialRectangle;html=1;whiteSpace=wrap;connectable=0;overflow=hidden;fillColor=none;top=0;left=0;bottom=0;right=0;" vertex="1" parent="9qrIkXc0WwUOy52vl9C2-400">
          <mxGeometry x="60" width="60" height="40" as="geometry" />
        </mxCell>
        <mxCell id="9qrIkXc0WwUOy52vl9C2-403" value="" style="shape=partialRectangle;html=1;whiteSpace=wrap;connectable=0;overflow=hidden;fillColor=none;top=0;left=0;bottom=0;right=0;" vertex="1" parent="9qrIkXc0WwUOy52vl9C2-400">
          <mxGeometry x="120" width="60" height="40" as="geometry" />
        </mxCell>
        <mxCell id="9qrIkXc0WwUOy52vl9C2-404" value="" style="shape=partialRectangle;html=1;whiteSpace=wrap;connectable=0;overflow=hidden;fillColor=none;top=0;left=0;bottom=0;right=0;" vertex="1" parent="9qrIkXc0WwUOy52vl9C2-400">
          <mxGeometry x="180" width="60" height="40" as="geometry" />
        </mxCell>
        <mxCell id="9qrIkXc0WwUOy52vl9C2-405" value="" style="shape=partialRectangle;html=1;whiteSpace=wrap;connectable=0;overflow=hidden;fillColor=none;top=0;left=0;bottom=0;right=0;" vertex="1" parent="9qrIkXc0WwUOy52vl9C2-400">
          <mxGeometry x="240" width="60" height="40" as="geometry" />
        </mxCell>
        <mxCell id="9qrIkXc0WwUOy52vl9C2-406" value="" style="shape=partialRectangle;html=1;whiteSpace=wrap;connectable=0;overflow=hidden;fillColor=none;top=0;left=0;bottom=0;right=0;" vertex="1" parent="9qrIkXc0WwUOy52vl9C2-400">
          <mxGeometry x="300" width="60" height="40" as="geometry" />
        </mxCell>
        <mxCell id="9qrIkXc0WwUOy52vl9C2-407" value="" style="shape=partialRectangle;html=1;whiteSpace=wrap;connectable=0;overflow=hidden;fillColor=none;top=0;left=0;bottom=0;right=0;" vertex="1" parent="9qrIkXc0WwUOy52vl9C2-400">
          <mxGeometry x="360" width="60" height="40" as="geometry" />
        </mxCell>
        <mxCell id="9qrIkXc0WwUOy52vl9C2-408" value="" style="shape=partialRectangle;html=1;whiteSpace=wrap;connectable=0;overflow=hidden;fillColor=none;top=0;left=0;bottom=0;right=0;" vertex="1" parent="9qrIkXc0WwUOy52vl9C2-400">
          <mxGeometry x="420" width="60" height="40" as="geometry" />
        </mxCell>
        <mxCell id="9qrIkXc0WwUOy52vl9C2-409" value="" style="shape=partialRectangle;html=1;whiteSpace=wrap;connectable=0;overflow=hidden;fillColor=none;top=0;left=0;bottom=0;right=0;" vertex="1" parent="9qrIkXc0WwUOy52vl9C2-400">
          <mxGeometry x="480" width="60" height="40" as="geometry" />
        </mxCell>
        <mxCell id="9qrIkXc0WwUOy52vl9C2-410" value="" style="shape=partialRectangle;html=1;whiteSpace=wrap;connectable=0;overflow=hidden;fillColor=none;top=0;left=0;bottom=0;right=0;" vertex="1" parent="9qrIkXc0WwUOy52vl9C2-400">
          <mxGeometry x="540" width="60" height="40" as="geometry" />
        </mxCell>
        <mxCell id="9qrIkXc0WwUOy52vl9C2-411" value="" style="shape=partialRectangle;html=1;whiteSpace=wrap;connectable=0;overflow=hidden;fillColor=none;top=0;left=0;bottom=0;right=0;" vertex="1" parent="9qrIkXc0WwUOy52vl9C2-400">
          <mxGeometry x="600" width="60" height="40" as="geometry" />
        </mxCell>
        <mxCell id="9qrIkXc0WwUOy52vl9C2-412" value="" style="shape=partialRectangle;html=1;whiteSpace=wrap;connectable=0;overflow=hidden;fillColor=none;top=0;left=0;bottom=0;right=0;" vertex="1" parent="9qrIkXc0WwUOy52vl9C2-400">
          <mxGeometry x="660" width="60" height="40" as="geometry" />
        </mxCell>
        <mxCell id="9qrIkXc0WwUOy52vl9C2-413" value="" style="shape=partialRectangle;html=1;whiteSpace=wrap;connectable=0;overflow=hidden;fillColor=none;top=0;left=0;bottom=0;right=0;" vertex="1" parent="9qrIkXc0WwUOy52vl9C2-400">
          <mxGeometry x="720" width="60" height="40" as="geometry" />
        </mxCell>
        <mxCell id="9qrIkXc0WwUOy52vl9C2-414" value="" style="shape=partialRectangle;html=1;whiteSpace=wrap;connectable=0;overflow=hidden;fillColor=none;top=0;left=0;bottom=0;right=0;" vertex="1" parent="9qrIkXc0WwUOy52vl9C2-400">
          <mxGeometry x="780" width="60" height="40" as="geometry" />
        </mxCell>
        <mxCell id="9qrIkXc0WwUOy52vl9C2-415" value="" style="shape=partialRectangle;html=1;whiteSpace=wrap;connectable=0;overflow=hidden;fillColor=none;top=0;left=0;bottom=0;right=0;" vertex="1" parent="9qrIkXc0WwUOy52vl9C2-400">
          <mxGeometry x="840" width="60" height="40" as="geometry" />
        </mxCell>
        <mxCell id="9qrIkXc0WwUOy52vl9C2-416" value="" style="shape=partialRectangle;html=1;whiteSpace=wrap;connectable=0;overflow=hidden;fillColor=none;top=0;left=0;bottom=0;right=0;" vertex="1" parent="9qrIkXc0WwUOy52vl9C2-400">
          <mxGeometry x="900" width="60" height="40" as="geometry" />
        </mxCell>
        <mxCell id="9qrIkXc0WwUOy52vl9C2-417" value="" style="shape=partialRectangle;html=1;whiteSpace=wrap;connectable=0;overflow=hidden;fillColor=none;top=0;left=0;bottom=0;right=0;" vertex="1" parent="9qrIkXc0WwUOy52vl9C2-400">
          <mxGeometry x="960" width="60" height="40" as="geometry" />
        </mxCell>
        <mxCell id="9qrIkXc0WwUOy52vl9C2-418" value="" style="shape=partialRectangle;html=1;whiteSpace=wrap;connectable=0;overflow=hidden;fillColor=none;top=0;left=0;bottom=0;right=0;" vertex="1" parent="9qrIkXc0WwUOy52vl9C2-400">
          <mxGeometry x="1020" width="60" height="40" as="geometry" />
        </mxCell>
        <mxCell id="9qrIkXc0WwUOy52vl9C2-419" value="" style="shape=partialRectangle;html=1;whiteSpace=wrap;connectable=0;overflow=hidden;fillColor=none;top=0;left=0;bottom=0;right=0;" vertex="1" parent="9qrIkXc0WwUOy52vl9C2-400">
          <mxGeometry x="1080" width="60" height="40" as="geometry" />
        </mxCell>
        <mxCell id="9qrIkXc0WwUOy52vl9C2-420" value="" style="shape=partialRectangle;html=1;whiteSpace=wrap;connectable=0;overflow=hidden;fillColor=none;top=0;left=0;bottom=0;right=0;" vertex="1" parent="9qrIkXc0WwUOy52vl9C2-400">
          <mxGeometry x="1140" width="60" height="40" as="geometry" />
        </mxCell>
      </root>
    </mxGraphModel>
  </diagram>
</mxfile>
